<svg width="87" height="103" viewBox="0 0 87 103" fill="none" xmlns="http://www.w3.org/2000/svg">
<g filter="url(#filter0_b_15_746)">
<path d="M34 81H41L39.6662 100.562C39.5726 101.935 38.4322 103 37.0567 103V103C35.6354 103 34.4742 101.865 34.4419 100.444L34 81Z" fill="#909090"/>
<path d="M53 81H46L47.7839 100.623C47.9063 101.969 49.0349 103 50.3866 103V103C51.8299 103 53 101.83 53 100.387V81Z" fill="#909090"/>
</g>
<g filter="url(#filter1_b_15_746)">
<path d="M53.6636 48.3468C70.8948 55.5749 77.5248 63.4205 81.5902 74.8037" stroke="#909090" stroke-width="5" stroke-linecap="round"/>
<circle cx="82.5281" cy="76.0234" r="4.47196" fill="#909090"/>
</g>
<g filter="url(#filter2_b_15_746)">
<path d="M33.6182 48.3468C16.387 55.5749 9.75701 63.4205 5.69158 74.8037" stroke="#909090" stroke-width="5" stroke-linecap="round"/>
<circle cx="4.47196" cy="76.0234" r="4.47196" fill="#909090"/>
</g>
<g filter="url(#filter3_b_15_746)">
<rect x="28.4579" y="34.1495" width="29.271" height="48.785" rx="4" fill="#E4FFFD"/>
<rect x="33" y="45" width="20" height="32" rx="4" fill="#BEE2E0"/>
</g>
<g filter="url(#filter4_b_15_746)">
<rect x="8.94391" width="68.2991" height="48.785" rx="4" fill="#F4FFFE"/>
<circle cx="21.5467" cy="24.799" r="2.84579" fill="#383838"/>
<circle cx="63.8271" cy="24.799" r="2.84579" fill="#383838"/>
<path d="M37.4018 31.4433C40.3205 37.3252 47.5443 34.6912 48.9523 31.395" stroke="#383838" stroke-width="2" stroke-linecap="round"/>
</g>
<ellipse cx="22.7664" cy="32.9299" rx="4.8785" ry="2.84579" fill="#FFBFBC"/>
<ellipse cx="64.2337" cy="32.9299" rx="4.8785" ry="2.84579" fill="#FFBFBC"/>
<defs>
<filter id="filter0_b_15_746" x="14" y="61" width="59" height="62" filterUnits="userSpaceOnUse" color-interpolation-filters="sRGB">
<feFlood flood-opacity="0" result="BackgroundImageFix"/>
<feGaussianBlur in="BackgroundImageFix" stdDeviation="10"/>
<feComposite in2="SourceAlpha" operator="in" result="effect1_backgroundBlur_15_746"/>
<feBlend mode="normal" in="SourceGraphic" in2="effect1_backgroundBlur_15_746" result="shape"/>
</filter>
<filter id="filter1_b_15_746" x="31.1629" y="25.8462" width="75.8371" height="74.6492" filterUnits="userSpaceOnUse" color-interpolation-filters="sRGB">
<feFlood flood-opacity="0" result="BackgroundImageFix"/>
<feGaussianBlur in="BackgroundImageFix" stdDeviation="10"/>
<feComposite in2="SourceAlpha" operator="in" result="effect1_backgroundBlur_15_746"/>
<feBlend mode="normal" in="SourceGraphic" in2="effect1_backgroundBlur_15_746" result="shape"/>
</filter>
<filter id="filter2_b_15_746" x="-20" y="25.8462" width="76.1189" height="74.6492" filterUnits="userSpaceOnUse" color-interpolation-filters="sRGB">
<feFlood flood-opacity="0" result="BackgroundImageFix"/>
<feGaussianBlur in="BackgroundImageFix" stdDeviation="10"/>
<feComposite in2="SourceAlpha" operator="in" result="effect1_backgroundBlur_15_746"/>
<feBlend mode="normal" in="SourceGraphic" in2="effect1_backgroundBlur_15_746" result="shape"/>
</filter>
<filter id="filter3_b_15_746" x="9.45795" y="15.1495" width="67.2711" height="86.785" filterUnits="userSpaceOnUse" color-interpolation-filters="sRGB">
<feFlood flood-opacity="0" result="BackgroundImageFix"/>
<feGaussianBlur in="BackgroundImageFix" stdDeviation="9.5"/>
<feComposite in2="SourceAlpha" operator="in" result="effect1_backgroundBlur_15_746"/>
<feBlend mode="normal" in="SourceGraphic" in2="effect1_backgroundBlur_15_746" result="shape"/>
</filter>
<filter id="filter4_b_15_746" x="-1.05609" y="-10" width="88.2991" height="68.785" filterUnits="userSpaceOnUse" color-interpolation-filters="sRGB">
<feFlood flood-opacity="0" result="BackgroundImageFix"/>
<feGaussianBlur in="BackgroundImageFix" stdDeviation="5"/>
<feComposite in2="SourceAlpha" operator="in" result="effect1_backgroundBlur_15_746"/>
<feBlend mode="normal" in="SourceGraphic" in2="effect1_backgroundBlur_15_746" result="shape"/>
</filter>
</defs>
</svg>
