<svg width="3138" height="1074" viewBox="0 0 3138 1074" fill="none" xmlns="http://www.w3.org/2000/svg">
<path opacity="0.5" d="M1546.61 244.228C977.162 227.152 361.437 102.069 138.655 0L0.655396 847.186L2787.37 649.769C2149.7 633.761 1283.11 562.34 595.965 496.254C470.886 484.225 476.939 410.056 572.473 410.056L1578.32 334.53C1766.65 320.164 1839.47 253.01 1546.61 244.228Z" fill="url(#paint0_linear_24_826)" fill-opacity="0.74"/>
<path opacity="0.5" d="M1733.22 417.638C2330.48 400.555 2736.45 289.376 2970.12 187.26L3137.25 1073.87L2038.13 1008.37L939.007 942.868C1258.5 869.361 1601.4 804.477 2322.1 738.361C2453.29 726.326 2506.9 542.067 2406.7 542.067L1699.95 507.983C1502.43 493.61 1426.05 426.424 1733.22 417.638Z" fill="url(#paint1_linear_24_826)"/>
<defs>
<linearGradient id="paint0_linear_24_826" x1="1870.4" y1="305.387" x2="232.728" y2="129.282" gradientUnits="userSpaceOnUse">
<stop stop-color="#BEF6FF"/>
<stop offset="1" stop-color="white" stop-opacity="0.55"/>
</linearGradient>
<linearGradient id="paint1_linear_24_826" x1="1211.68" y1="468.97" x2="2276.11" y2="462.81" gradientUnits="userSpaceOnUse">
<stop stop-color="white" stop-opacity="0.22"/>
<stop offset="0.796875" stop-color="#DCFFE6"/>
</linearGradient>
</defs>
</svg>
