<svg width="195" height="312" viewBox="0 0 195 312" fill="none" xmlns="http://www.w3.org/2000/svg">
<path d="M0 203.755C0 169.202 47.7506 160.13 60.4226 192.275C61.4704 194.933 64.0369 196.68 66.8939 196.68H159.849C177.522 196.68 191.849 211.007 191.849 228.68V248.596C191.849 273.448 171.702 293.596 146.849 293.596H19.8241C8.87554 293.596 0 284.72 0 273.771V203.755Z" fill="white"/>
<path d="M135.293 233.847C135.851 230.32 138.463 227.469 141.928 226.605L188.5 215C195.499 228.645 195.5 240 192 252L142.658 244.015C137.822 243.233 134.529 238.686 135.293 233.847Z" fill="#383838"/>
<ellipse cx="46.0437" cy="293.596" rx="18.4175" ry="18.4045" fill="#383838"/>
<ellipse cx="46.0437" cy="293.596" rx="9.20875" ry="9.20225" fill="#ECECEC"/>
<ellipse cx="124.318" cy="293.596" rx="18.4175" ry="18.4045" fill="#383838"/>
<ellipse cx="124.318" cy="293.596" rx="9.20875" ry="9.20225" fill="#ECECEC"/>
<path d="M24.6559 258.238C23.1878 256.863 23.0984 254.546 24.5887 253.195C36.4561 242.434 56.558 236.322 103.346 228.636C112.096 227.198 120 233.994 120 242.862C120 251.824 111.917 258.608 103.057 257.263C60.5116 250.802 43.62 251.915 28.8487 258.859C27.4503 259.516 25.7836 259.294 24.6559 258.238Z" fill="#919191"/>
<circle cx="99" cy="53" r="53" fill="white" fill-opacity="0.6"/>
<path d="M85 128C85 125.791 86.7909 124 89 124H105.808C108.017 124 109.808 125.791 109.808 128V136C109.808 138.209 108.017 140 105.808 140H85V128Z" fill="#10314B"/>
<path d="M91.4865 128C91.4865 125.791 93.2774 124 95.4865 124H111C113.209 124 115 125.791 115 128V140H91.4865V128Z" fill="#6D7785"/>
</svg>
