<svg width="356" height="294" viewBox="0 0 356 294" fill="none" xmlns="http://www.w3.org/2000/svg">
<g clip-path="url(#clip0_55_245)">
<rect width="356" height="294" rx="24" fill="#C4C4C4"/>
<g filter="url(#filter0_d_55_245)">
<g filter="url(#filter1_b_55_245)">
<path d="M160.353 269.913H178.945L175.402 321.872C175.154 325.517 172.125 328.346 168.471 328.346C164.696 328.346 161.612 325.331 161.526 321.557L160.353 269.913Z" fill="#6C6C6C"/>
<path d="M210.814 269.913H192.222L196.96 322.033C197.285 325.609 200.283 328.346 203.873 328.346C207.707 328.346 210.814 325.238 210.814 321.405V269.913Z" fill="#6C6C6C"/>
</g>
<g filter="url(#filter2_b_55_245)">
<path d="M158.896 168.716C128.892 208.25 124.082 235.105 129.874 266.683" stroke="#6C6C6C" stroke-width="4.10657" stroke-linecap="round"/>
<ellipse cx="128.692" cy="271.108" rx="11.8777" ry="11.8777" transform="rotate(-30.0466 128.692 271.108)" fill="#6C6C6C"/>
</g>
<g filter="url(#filter3_b_55_245)">
<path d="M209.007 170.622C240.484 208.993 246.305 235.647 241.711 267.421" stroke="#6C6C6C" stroke-width="4.10657" stroke-linecap="round"/>
<ellipse cx="11.8777" cy="11.8777" rx="11.8777" ry="11.8777" transform="matrix(-0.883928 -0.467622 -0.467622 0.883928 259.112 266.854)" fill="#6C6C6C"/>
</g>
<g filter="url(#filter4_b_55_245)">
<rect x="145.634" y="145.478" width="77.7448" height="129.575" rx="14" fill="#E4FFFD"/>
<rect x="157.699" y="174.297" width="53.1207" height="84.9931" rx="14" fill="#BEE2E0"/>
</g>
<g filter="url(#filter5_b_55_245)">
<rect x="93.8027" y="54.7778" width="181.405" height="129.575" rx="26" fill="#F4FFFE"/>
<ellipse cx="132.714" cy="119.784" rx="10.0153" ry="5.56407" transform="rotate(-7.25529 132.714 119.784)" fill="#383838"/>
<ellipse cx="233.62" cy="119.784" rx="10.0153" ry="5.56407" transform="rotate(7.01215 233.62 119.784)" fill="#383838"/>
</g>
<ellipse cx="130.517" cy="140.502" rx="12.9575" ry="7.55852" fill="#FFBFBC"/>
<ellipse cx="240.653" cy="140.502" rx="12.9575" ry="7.55852" fill="#FFBFBC"/>
<path d="M195.041 150.269C190.175 139.994 177.564 144.313 175.013 149.97" stroke="#383838" stroke-width="1.64263" stroke-linecap="round"/>
</g>
<path d="M66.4285 37.8231C60.9964 38.1548 55.8344 38.8814 50.8344 40.9423C43.3754 44.0167 35.2772 47.8164 29.0198 52.9282C24.0383 56.9976 22.8316 62.5758 28.8764 66.5314C32.7538 69.0687 37.0253 70.3596 41.2314 72.1922C46.0729 74.3016 50.9311 76.5337 56.2809 76.7843C61.3628 77.0225 62.9207 75.2634 64.1353 70.2571C67.1503 57.8301 64.3763 46.3434 60.3514 34.5306C59.2456 31.2851 57.9849 28.1008 56.8828 24.8552C56.2986 23.1347 55.23 19.8728 53.2996 19.1656C50.3139 18.0717 48.3332 22.6825 47.2225 24.6531C43.1393 31.8972 40.3114 38.9386 37.9348 46.8919C36.2289 52.6005 33.4426 57.729 31.3703 63.2966C28.9605 69.7713 30.5481 78.7207 38.8521 79.8747C46.7276 80.9691 54.786 76.4163 61.4407 72.7698C66.5949 69.9455 73.0962 64.7799 75.4296 59.1377C76.9998 55.3408 79.3281 51.2762 79.3281 47.0652C79.3281 43.8227 79.0287 43.1636 75.7449 42.5019C69.931 41.3304 64.4324 39.934 58.9468 37.592C51.0656 34.2274 42.634 30.5253 34.1509 29.1008C30.3688 28.4657 31.8145 33.1772 32.4023 35.7436C33.8242 41.9517 39.6188 48.0061 44.0693 52.0906C51.372 58.7926 60.1328 63.5842 67.3458 70.4882C69.7595 72.7984 71.5884 74.9656 71.5884 78.3728C71.5884 80.5466 71.6709 82.4656 69.2378 83.2827C64.5203 84.867 57.1225 83.612 52.841 81.6076C42.2773 76.6622 34.0381 64.3389 40.4574 52.6971C42.5318 48.9351 46.4635 46.2201 50.0891 44.177C54.4791 41.7031 58.965 38.6582 63.734 37.0144C64.9543 36.5938 76.4878 31.5674 76.7195 33.202C77.4065 38.0474 75.311 42.1559 73.0217 46.2565C69.9599 51.7407 65.2648 57.2332 60.9534 61.7659C55.8294 67.153 50.7288 71.7369 44.5279 65.0584C39.9392 60.1163 36.1282 52.133 34.2656 45.65C33.1765 41.8593 33.2979 37.5726 33.4056 33.6641C33.488 30.6772 36.6828 31.5847 38.8234 31.5847C44.6633 31.5847 48.6382 36.4707 53.013 39.787C56.5655 42.48 61.5145 44.9944 62.702 49.7801C63.4244 52.6915 64.4054 58.8117 62.7307 61.4482C59.6952 66.2268 50.0252 67.5335 45.1012 68.4953C43.1068 68.8849 41.1095 69.7742 39.1101 70.0261C37.2978 70.2543 38.0357 66.8499 38.0781 65.7805C38.4217 57.1258 43.6614 51.2681 50.9777 47.4407C53.5475 46.0963 62.1887 39.1656 63.218 44.4658C64.5619 51.3864 65.7244 63.6749 57.2555 66.3003C54.8185 67.0558 52.102 58.9604 50.949 57.347C49.7407 55.6562 46.9376 53.0495 46.8212 50.8198C46.6331 47.219 49.4983 43.2675 50.691 39.9026C51.31 38.1565 50.8875 35.2237 53.2423 35.2237C57.6852 35.2237 62.1519 34.0878 66.3139 32.7399C66.9573 32.5316 69.6213 40.6583 70.1264 41.5488C71.7948 44.4905 73.9083 47.1906 75.4869 50.1844C76.5757 52.2493 76.2322 54.7976 76.2322 57.0582C76.2322 61.355 75.3806 67.3453 73.165 71.0658C71.9801 73.0555 72.2356 75.2536 69.5244 75.2536C63.0945 75.2536 57.2914 73.2796 50.9777 72.4232C43.2845 71.3798 35.4575 70.949 27.7298 70.1705C25.3171 69.9274 21.9545 70.573 21.5093 67.6578C20.845 63.3072 20.498 59.2368 22.6273 55.2387C25.6286 49.6033 32.5516 47.446 37.9348 44.9857C41.2212 43.4838 44.219 41.4622 47.8531 41.4622C52.125 41.4622 56.4277 41.7147 60.6381 42.5019C66.3363 43.5673 75.2716 46.306 78.6975 51.3397C80.6234 54.1694 79.8441 58.9449 79.8441 62.1991C79.8441 64.063 79.1529 63.6449 77.7802 64.3364" stroke="#10314B" stroke-width="2" stroke-linecap="round"/>
</g>
<defs>
<filter id="filter0_d_55_245" x="84.8027" y="49.7778" width="199.404" height="291.568" filterUnits="userSpaceOnUse" color-interpolation-filters="sRGB">
<feFlood flood-opacity="0" result="BackgroundImageFix"/>
<feColorMatrix in="SourceAlpha" type="matrix" values="0 0 0 0 0 0 0 0 0 0 0 0 0 0 0 0 0 0 127 0" result="hardAlpha"/>
<feOffset dy="4"/>
<feGaussianBlur stdDeviation="4.5"/>
<feComposite in2="hardAlpha" operator="out"/>
<feColorMatrix type="matrix" values="0 0 0 0 0 0 0 0 0 0 0 0 0 0 0 0 0 0 0.25 0"/>
<feBlend mode="normal" in2="BackgroundImageFix" result="effect1_dropShadow_55_245"/>
<feBlend mode="normal" in="SourceGraphic" in2="effect1_dropShadow_55_245" result="shape"/>
</filter>
<filter id="filter1_b_55_245" x="143.926" y="253.487" width="83.3145" height="91.2853" filterUnits="userSpaceOnUse" color-interpolation-filters="sRGB">
<feFlood flood-opacity="0" result="BackgroundImageFix"/>
<feGaussianBlur in="BackgroundImageFix" stdDeviation="8.21314"/>
<feComposite in2="SourceAlpha" operator="in" result="effect1_backgroundBlur_55_245"/>
<feBlend mode="normal" in="SourceGraphic" in2="effect1_backgroundBlur_55_245" result="shape"/>
</filter>
<filter id="filter2_b_55_245" x="100.385" y="150.236" width="76.9903" height="149.178" filterUnits="userSpaceOnUse" color-interpolation-filters="sRGB">
<feFlood flood-opacity="0" result="BackgroundImageFix"/>
<feGaussianBlur in="BackgroundImageFix" stdDeviation="8.21314"/>
<feComposite in2="SourceAlpha" operator="in" result="effect1_backgroundBlur_55_245"/>
<feBlend mode="normal" in="SourceGraphic" in2="effect1_backgroundBlur_55_245" result="shape"/>
</filter>
<filter id="filter3_b_55_245" x="190.527" y="152.142" width="80.8389" height="147.963" filterUnits="userSpaceOnUse" color-interpolation-filters="sRGB">
<feFlood flood-opacity="0" result="BackgroundImageFix"/>
<feGaussianBlur in="BackgroundImageFix" stdDeviation="8.21314"/>
<feComposite in2="SourceAlpha" operator="in" result="effect1_backgroundBlur_55_245"/>
<feBlend mode="normal" in="SourceGraphic" in2="effect1_backgroundBlur_55_245" result="shape"/>
</filter>
<filter id="filter4_b_55_245" x="130.029" y="129.873" width="108.955" height="160.785" filterUnits="userSpaceOnUse" color-interpolation-filters="sRGB">
<feFlood flood-opacity="0" result="BackgroundImageFix"/>
<feGaussianBlur in="BackgroundImageFix" stdDeviation="7.80249"/>
<feComposite in2="SourceAlpha" operator="in" result="effect1_backgroundBlur_55_245"/>
<feBlend mode="normal" in="SourceGraphic" in2="effect1_backgroundBlur_55_245" result="shape"/>
</filter>
<filter id="filter5_b_55_245" x="85.5896" y="46.5646" width="197.831" height="146.001" filterUnits="userSpaceOnUse" color-interpolation-filters="sRGB">
<feFlood flood-opacity="0" result="BackgroundImageFix"/>
<feGaussianBlur in="BackgroundImageFix" stdDeviation="4.10657"/>
<feComposite in2="SourceAlpha" operator="in" result="effect1_backgroundBlur_55_245"/>
<feBlend mode="normal" in="SourceGraphic" in2="effect1_backgroundBlur_55_245" result="shape"/>
</filter>
<clipPath id="clip0_55_245">
<rect width="356" height="294" fill="white"/>
</clipPath>
</defs>
</svg>
