<svg width="356" height="294" viewBox="0 0 356 294" fill="none" xmlns="http://www.w3.org/2000/svg">
<g clip-path="url(#clip0_55_219)">
<rect width="356" height="294" rx="24" fill="#87EBC7"/>
<g filter="url(#filter0_d_55_219)">
<g filter="url(#filter1_b_55_219)">
<path d="M148.956 271.656H170.359L166.281 331.469C165.995 335.664 162.508 338.922 158.302 338.922C153.956 338.922 150.406 335.451 150.307 331.106L148.956 271.656Z" fill="#6C6C6C"/>
<path d="M207.046 271.656H185.643L191.098 331.655C191.472 335.77 194.923 338.922 199.055 338.922C203.468 338.922 207.046 335.344 207.046 330.931V271.656Z" fill="#6C6C6C"/>
</g>
<g filter="url(#filter2_b_55_219)">
<path d="M295.001 214.5C250.501 214.5 212.841 203.5 212.841 167.59" stroke="#6C6C6C" stroke-width="4.10657" stroke-linecap="round"/>
</g>
<g filter="url(#filter3_b_55_219)">
<path d="M147.787 171.818C95.1022 193.918 74.8308 217.907 62.4007 252.711" stroke="#6C6C6C" stroke-width="4.10657" stroke-linecap="round"/>
<ellipse cx="58.6731" cy="256.44" rx="13.6731" ry="13.6731" fill="#6C6C6C"/>
</g>
<g filter="url(#filter4_b_55_219)">
<rect x="132.012" y="128.411" width="89.497" height="149.162" rx="14" fill="#E4FFFD"/>
<rect x="145.9" y="161.586" width="61.1505" height="97.8408" rx="14" fill="#BEE2E0"/>
</g>
<g filter="url(#filter5_b_55_219)">
<rect x="72.3467" y="24" width="208.826" height="149.162" rx="26" fill="#F4FFFE"/>
<circle cx="110.884" cy="99.823" r="8.70109" fill="#383838"/>
<circle cx="240.15" cy="99.823" r="8.70109" fill="#383838"/>
<path d="M163 120L193 120C193 128.284 186.284 135 178 135C169.716 135 163 128.284 163 120Z" fill="#383838"/>
</g>
<ellipse cx="114.61" cy="124.682" rx="14.9162" ry="8.70109" fill="#FFBFBC"/>
<ellipse cx="241.394" cy="124.682" rx="14.9162" ry="8.70109" fill="#FFBFBC"/>
</g>
<g filter="url(#filter6_d_55_219)">
<ellipse cx="307.673" cy="208.673" rx="13.6731" ry="13.6731" fill="#6C6C6C"/>
<path d="M295 189C295 186.791 296.791 185 299 185C301.209 185 303 186.791 303 189V204C303 206.209 301.209 208 299 208H295V189Z" fill="#6C6C6C"/>
</g>
<g filter="url(#filter7_d_55_219)">
<path d="M330.329 101.024L341 106.5L330.329 111.988L324.5 122L318.658 111.988L308 106.5L318.658 101.024L324.5 91L330.329 101.024Z" fill="#FFD600"/>
</g>
<g filter="url(#filter8_d_55_219)">
<path d="M308.473 138.88L313 141L308.473 143.124L306 147L303.522 143.124L299 141L303.522 138.88L306 135L308.473 138.88Z" fill="#FFD600"/>
</g>
</g>
<defs>
<filter id="filter0_d_55_219" x="38" y="21" width="266.055" height="328.922" filterUnits="userSpaceOnUse" color-interpolation-filters="sRGB">
<feFlood flood-opacity="0" result="BackgroundImageFix"/>
<feColorMatrix in="SourceAlpha" type="matrix" values="0 0 0 0 0 0 0 0 0 0 0 0 0 0 0 0 0 0 127 0" result="hardAlpha"/>
<feOffset dy="4"/>
<feGaussianBlur stdDeviation="3.5"/>
<feComposite in2="hardAlpha" operator="out"/>
<feColorMatrix type="matrix" values="0 0 0 0 0 0 0 0 0 0 0 0 0 0 0 0 0 0 0.25 0"/>
<feBlend mode="normal" in2="BackgroundImageFix" result="effect1_dropShadow_55_219"/>
<feBlend mode="normal" in="SourceGraphic" in2="effect1_dropShadow_55_219" result="shape"/>
</filter>
<filter id="filter1_b_55_219" x="132.53" y="255.23" width="90.9424" height="100.118" filterUnits="userSpaceOnUse" color-interpolation-filters="sRGB">
<feFlood flood-opacity="0" result="BackgroundImageFix"/>
<feGaussianBlur in="BackgroundImageFix" stdDeviation="8.21314"/>
<feComposite in2="SourceAlpha" operator="in" result="effect1_backgroundBlur_55_219"/>
<feBlend mode="normal" in="SourceGraphic" in2="effect1_backgroundBlur_55_219" result="shape"/>
</filter>
<filter id="filter2_b_55_219" x="194.361" y="149.11" width="119.12" height="83.8694" filterUnits="userSpaceOnUse" color-interpolation-filters="sRGB">
<feFlood flood-opacity="0" result="BackgroundImageFix"/>
<feGaussianBlur in="BackgroundImageFix" stdDeviation="8.21314"/>
<feComposite in2="SourceAlpha" operator="in" result="effect1_backgroundBlur_55_219"/>
<feBlend mode="normal" in="SourceGraphic" in2="effect1_backgroundBlur_55_219" result="shape"/>
</filter>
<filter id="filter3_b_55_219" x="28.5737" y="153.338" width="137.693" height="133.201" filterUnits="userSpaceOnUse" color-interpolation-filters="sRGB">
<feFlood flood-opacity="0" result="BackgroundImageFix"/>
<feGaussianBlur in="BackgroundImageFix" stdDeviation="8.21314"/>
<feComposite in2="SourceAlpha" operator="in" result="effect1_backgroundBlur_55_219"/>
<feBlend mode="normal" in="SourceGraphic" in2="effect1_backgroundBlur_55_219" result="shape"/>
</filter>
<filter id="filter4_b_55_219" x="116.407" y="112.806" width="120.707" height="180.372" filterUnits="userSpaceOnUse" color-interpolation-filters="sRGB">
<feFlood flood-opacity="0" result="BackgroundImageFix"/>
<feGaussianBlur in="BackgroundImageFix" stdDeviation="7.80249"/>
<feComposite in2="SourceAlpha" operator="in" result="effect1_backgroundBlur_55_219"/>
<feBlend mode="normal" in="SourceGraphic" in2="effect1_backgroundBlur_55_219" result="shape"/>
</filter>
<filter id="filter5_b_55_219" x="64.1335" y="15.7869" width="225.252" height="165.588" filterUnits="userSpaceOnUse" color-interpolation-filters="sRGB">
<feFlood flood-opacity="0" result="BackgroundImageFix"/>
<feGaussianBlur in="BackgroundImageFix" stdDeviation="4.10657"/>
<feComposite in2="SourceAlpha" operator="in" result="effect1_backgroundBlur_55_219"/>
<feBlend mode="normal" in="SourceGraphic" in2="effect1_backgroundBlur_55_219" result="shape"/>
</filter>
<filter id="filter6_d_55_219" x="287" y="182" width="41.3467" height="51.3463" filterUnits="userSpaceOnUse" color-interpolation-filters="sRGB">
<feFlood flood-opacity="0" result="BackgroundImageFix"/>
<feColorMatrix in="SourceAlpha" type="matrix" values="0 0 0 0 0 0 0 0 0 0 0 0 0 0 0 0 0 0 127 0" result="hardAlpha"/>
<feOffset dy="4"/>
<feGaussianBlur stdDeviation="3.5"/>
<feComposite in2="hardAlpha" operator="out"/>
<feColorMatrix type="matrix" values="0 0 0 0 0 0 0 0 0 0 0 0 0 0 0 0 0 0 0.25 0"/>
<feBlend mode="normal" in2="BackgroundImageFix" result="effect1_dropShadow_55_219"/>
<feBlend mode="normal" in="SourceGraphic" in2="effect1_dropShadow_55_219" result="shape"/>
</filter>
<filter id="filter7_d_55_219" x="301" y="88" width="47" height="45" filterUnits="userSpaceOnUse" color-interpolation-filters="sRGB">
<feFlood flood-opacity="0" result="BackgroundImageFix"/>
<feColorMatrix in="SourceAlpha" type="matrix" values="0 0 0 0 0 0 0 0 0 0 0 0 0 0 0 0 0 0 127 0" result="hardAlpha"/>
<feOffset dy="4"/>
<feGaussianBlur stdDeviation="3.5"/>
<feComposite in2="hardAlpha" operator="out"/>
<feColorMatrix type="matrix" values="0 0 0 0 0 0 0 0 0 0 0 0 0 0 0 0 0 0 0.25 0"/>
<feBlend mode="normal" in2="BackgroundImageFix" result="effect1_dropShadow_55_219"/>
<feBlend mode="normal" in="SourceGraphic" in2="effect1_dropShadow_55_219" result="shape"/>
</filter>
<filter id="filter8_d_55_219" x="292" y="132" width="28" height="26" filterUnits="userSpaceOnUse" color-interpolation-filters="sRGB">
<feFlood flood-opacity="0" result="BackgroundImageFix"/>
<feColorMatrix in="SourceAlpha" type="matrix" values="0 0 0 0 0 0 0 0 0 0 0 0 0 0 0 0 0 0 127 0" result="hardAlpha"/>
<feOffset dy="4"/>
<feGaussianBlur stdDeviation="3.5"/>
<feComposite in2="hardAlpha" operator="out"/>
<feColorMatrix type="matrix" values="0 0 0 0 0 0 0 0 0 0 0 0 0 0 0 0 0 0 0.25 0"/>
<feBlend mode="normal" in2="BackgroundImageFix" result="effect1_dropShadow_55_219"/>
<feBlend mode="normal" in="SourceGraphic" in2="effect1_dropShadow_55_219" result="shape"/>
</filter>
<clipPath id="clip0_55_219">
<rect width="356" height="294" fill="white"/>
</clipPath>
</defs>
</svg>
