<svg width="428" height="240" viewBox="0 0 428 240" fill="none" xmlns="http://www.w3.org/2000/svg">
<rect x="68" width="291" height="240" rx="24" fill="#96E0F0"/>
<path d="M406.656 129.314L423.313 112.657" stroke="#7E7E7E" stroke-width="8" stroke-linecap="round"/>
<path d="M406.656 96L423.313 112.657" stroke="#7E7E7E" stroke-width="8" stroke-linecap="round"/>
<path d="M20.6567 129.314L3.99989 112.657" stroke="#7E7E7E" stroke-width="8" stroke-linecap="round"/>
<path d="M20.6567 96L3.99989 112.657" stroke="#7E7E7E" stroke-width="8" stroke-linecap="round"/>
<path d="M159.114 122.745C159.114 100.358 190.051 94.4801 198.262 115.307C198.941 117.029 200.603 118.161 202.454 118.161H257.318C271.73 118.161 283.413 129.844 283.413 144.256C283.413 164.523 266.983 180.953 246.716 180.953H171.958C164.864 180.953 159.114 175.202 159.114 168.109V122.745Z" fill="white"/>
<path d="M246.771 142.242C247.132 139.957 248.824 138.109 251.069 137.55L281.243 130.031C285.778 138.871 285.778 146.228 283.511 154.003L251.542 148.83C248.408 148.323 246.275 145.377 246.771 142.242Z" fill="#383838"/>
<ellipse cx="188.945" cy="180.953" rx="11.9327" ry="11.9243" fill="#383838"/>
<ellipse cx="188.946" cy="180.953" rx="5.96636" ry="5.96215" fill="white"/>
<ellipse cx="239.659" cy="180.953" rx="11.9327" ry="11.9243" fill="#383838"/>
<ellipse cx="239.659" cy="180.953" rx="5.96636" ry="5.96215" fill="white"/>
<path d="M174.649 145.958C174.29 142.797 176.402 139.843 179.567 139.509C188.499 138.565 197.13 139.747 221.541 138.267C225.261 138.041 228.439 140.979 228.439 144.706C228.439 148.361 225.369 151.273 221.717 151.135C198.253 150.249 198.596 151.215 180.775 151.386C177.649 151.416 175.002 149.065 174.649 145.958Z" fill="#909090"/>
<path d="M152.634 99.5792C152.634 96.1303 152.902 95.4751 156.351 95.4751H179.805C183.254 95.4751 186.05 98.271 186.05 101.72V107.575C186.05 111.024 183.254 113.82 179.805 113.82H156.351C152.902 113.82 152.634 113.071 152.634 109.622L152.634 99.5792Z" fill="#5A5A5A"/>
<path d="M158.693 98.2072C158.693 95.4388 159.497 93.4695 160.82 92.0727C164.781 87.8916 173.39 88.8398 178.989 88.8398H196.044C202.942 88.8398 203.171 94.4317 203.171 101.33V106.816C203.171 113.714 202.942 119.306 196.044 119.306H168.06C158.693 119.306 158.693 119.306 158.693 109.939V98.2072Z" fill="#AFAFAF"/>
<path d="M178.989 88.8398L165.981 77.6659C163.958 75.9218 160.82 77.3596 160.82 80.0312V92.0727C164.781 87.8916 173.39 88.8398 178.989 88.8398Z" fill="#AFAFAF"/>
<path d="M147.451 105.244C147.451 109.804 144.766 113.501 141.453 113.501C138.141 113.501 135.455 109.804 135.455 105.244C135.455 100.684 138.141 96.9877 141.453 96.9877C144.766 96.9877 147.451 100.684 147.451 105.244Z" fill="#FFC700"/>
<path d="M117 105.426L140.531 97.0181V113.833L117 105.426Z" fill="#FFC700"/>
<ellipse cx="196.692" cy="104.115" rx="14.9017" ry="14.9017" fill="#AFAFAF"/>
<circle cx="171.424" cy="104.115" r="1.9437" fill="#5A5A5A"/>
<circle cx="184.382" cy="104.115" r="3.23951" fill="#5A5A5A"/>
<path d="M220.664 96.4033C220.822 103.43 225.754 117.528 244.214 117.709C242.993 109.47 236.573 93.6753 220.664 96.4033Z" fill="#3F8E5D"/>
<path d="M265.369 95.9045C265.404 102.933 260.801 117.72 242.36 117.72C243.354 109.447 249.392 93.6803 265.369 95.9045Z" fill="#3F8E5D"/>
</svg>
