<svg width="428" height="240" viewBox="0 0 428 240" fill="none" xmlns="http://www.w3.org/2000/svg">
<rect x="68" width="291" height="240" rx="24" fill="#96E0F0"/>
<path d="M406.653 129.314L423.31 112.657" stroke="#D8D8D8" stroke-width="8" stroke-linecap="round"/>
<path d="M406.653 96L423.31 112.657" stroke="#D8D8D8" stroke-width="8" stroke-linecap="round"/>
<path d="M20.6567 129.314L3.99989 112.657" stroke="#7E7E7E" stroke-width="8" stroke-linecap="round"/>
<path d="M20.6567 96L3.99989 112.657" stroke="#7E7E7E" stroke-width="8" stroke-linecap="round"/>
<path d="M174.855 124.957C174.855 104.302 203.399 98.8791 210.974 118.094C211.6 119.683 213.134 120.728 214.842 120.728H265.46C278.757 120.728 289.536 131.507 289.536 144.803C289.536 163.502 274.378 178.66 255.679 178.66H186.706C180.161 178.66 174.855 173.355 174.855 166.81V124.957Z" fill="white"/>
<path d="M255.729 142.945C256.062 140.837 257.624 139.132 259.695 138.616L287.534 131.679C291.718 139.835 291.718 146.623 289.626 153.796L260.131 149.023C257.24 148.555 255.272 145.837 255.729 142.945Z" fill="#383838"/>
<ellipse cx="202.378" cy="178.66" rx="11.0093" ry="11.0016" fill="#383838"/>
<ellipse cx="202.378" cy="178.66" rx="5.50466" ry="5.50078" fill="#ECECEC"/>
<ellipse cx="249.169" cy="178.66" rx="11.0093" ry="11.0016" fill="#383838"/>
<ellipse cx="249.168" cy="178.66" rx="5.50466" ry="5.50078" fill="#ECECEC"/>
<path d="M189.189 146.374C188.857 143.457 190.806 140.732 193.725 140.423C201.967 139.552 209.929 140.643 232.452 139.277C235.884 139.069 238.816 141.78 238.816 145.219C238.816 148.59 235.983 151.277 232.614 151.15C210.966 150.333 211.282 151.223 194.84 151.382C191.956 151.409 189.514 149.24 189.189 146.374Z" fill="#909090"/>
<path d="M168.877 103.584C168.877 100.402 169.124 99.7971 172.306 99.7971H193.945C197.127 99.7971 199.707 102.377 199.707 105.559V110.96C199.707 114.142 197.127 116.722 193.945 116.722H172.306C169.124 116.722 168.877 116.031 168.877 112.849L168.877 103.584Z" fill="#5A5A5A"/>
<path d="M174.467 102.318C174.467 99.7636 175.209 97.9467 176.43 96.658C180.084 92.8004 188.027 93.6752 193.192 93.6752H208.927C215.292 93.6752 215.503 98.8344 215.503 105.199V110.261C215.503 116.625 215.292 121.784 208.927 121.784H183.109C174.467 121.784 174.467 121.784 174.467 113.142V102.318Z" fill="#AFAFAF"/>
<path d="M193.192 93.6752L181.191 83.366C179.324 81.7569 176.43 83.0834 176.43 85.5483V96.658C180.084 92.8004 188.027 93.6752 193.192 93.6752Z" fill="#AFAFAF"/>
<path d="M164.095 108.81C164.095 113.017 161.617 116.428 158.561 116.428C155.505 116.428 153.027 113.017 153.027 108.81C153.027 104.603 155.505 101.193 158.561 101.193C161.617 101.193 164.095 104.603 164.095 108.81Z" fill="#FFC700"/>
<path d="M136 108.978L157.71 101.221V116.734L136 108.978Z" fill="#FFC700"/>
<circle cx="209.525" cy="107.768" r="13.7486" fill="#AFAFAF"/>
<circle cx="186.212" cy="107.768" r="1.79329" fill="#5A5A5A"/>
<circle cx="198.168" cy="107.768" r="2.98882" fill="#5A5A5A"/>
<path d="M168.877 76.0865C168.877 72.9045 169.124 72.3 172.306 72.3H193.945C197.127 72.3 199.707 74.8796 199.707 78.0617V83.4632C199.707 86.6453 197.127 89.2249 193.945 89.2249H172.306C169.124 89.2249 168.877 88.534 168.877 85.3519L168.877 76.0865Z" fill="#5A5A5A"/>
<path d="M174.467 74.8206C174.467 72.2665 175.209 70.4496 176.43 69.1608C180.084 65.3033 188.027 66.1781 193.192 66.1781H208.927C215.292 66.1781 215.503 71.3373 215.503 77.7015V82.7636C215.503 89.1277 215.292 94.2869 208.927 94.2869H183.109C174.467 94.2869 174.467 94.2869 174.467 85.6444V74.8206Z" fill="#AFAFAF"/>
<path d="M193.192 66.1781L181.191 55.8689C179.324 54.2597 176.43 55.5863 176.43 58.0511V69.1608C180.084 65.3033 188.027 66.1781 193.192 66.1781Z" fill="#AFAFAF"/>
<path d="M164.095 81.313C164.095 85.52 161.617 88.9305 158.561 88.9305C155.505 88.9305 153.027 85.52 153.027 81.313C153.027 77.1059 155.505 73.6954 158.561 73.6954C161.617 73.6954 164.095 77.1059 164.095 81.313Z" fill="#FFC700"/>
<path d="M136 81.4804L157.71 73.7235V89.2373L136 81.4804Z" fill="#FFC700"/>
<circle cx="209.525" cy="80.2709" r="13.7486" fill="#AFAFAF"/>
<circle cx="186.212" cy="80.2708" r="1.79329" fill="#5A5A5A"/>
<circle cx="198.168" cy="80.2709" r="2.98882" fill="#5A5A5A"/>
</svg>
