<svg width="428" height="240" viewBox="0 0 428 240" fill="none" xmlns="http://www.w3.org/2000/svg">
<rect x="68" width="291" height="240" rx="24" fill="#96E0F0"/>
<path d="M406.655 129.314L423.312 112.657" stroke="#7E7E7E" stroke-width="8" stroke-linecap="round"/>
<path d="M406.655 96L423.312 112.657" stroke="#7E7E7E" stroke-width="8" stroke-linecap="round"/>
<path d="M20.6567 129.314L3.99989 112.657" stroke="#7E7E7E" stroke-width="8" stroke-linecap="round"/>
<path d="M20.6567 96L3.99989 112.657" stroke="#7E7E7E" stroke-width="8" stroke-linecap="round"/>
<path d="M160.539 150.619C160.51 150.48 160.5 150.34 160.51 150.207C160.043 147.895 159.883 145.483 159.945 143.298C159.997 141.512 160.198 139.863 160.5 138.548C160.844 137.054 161.361 135.902 162 135.301C162.568 134.765 163.218 134.577 163.932 134.791C165.137 135.158 166.004 136.395 166.526 138.171C167.036 139.895 167.26 142.236 167.176 144.736C167.091 147.197 166.705 149.843 165.984 152.226C165.708 153.139 165.38 154.012 165 154.833C165.299 155.288 165.62 155.707 165.955 156.074C166.63 156.807 167.364 157.32 168.104 157.522C168.77 157.7 169.471 157.616 170.176 157.19C170.815 156.804 171.461 156.152 172.104 155.184C171.776 154.473 171.5 153.716 171.266 152.924C170.581 150.609 170.299 148.009 170.445 145.551C170.747 140.47 171.494 137.58 172.354 136.317C173.364 134.834 174.51 134.739 175.62 135.707C176.273 136.275 176.835 137.369 177.211 138.811C178.188 142.554 178.159 149.337 175.163 155.158L175.111 155.255C175.335 155.609 175.575 155.934 175.828 156.226C176.646 157.161 177.637 157.762 178.779 157.827C179.257 157.856 179.77 157.791 180.318 157.632C181.007 157.431 181.721 157.853 181.912 158.577C182.104 159.301 181.701 160.054 181.016 160.259C180.185 160.505 179.39 160.593 178.633 160.551C176.757 160.44 175.179 159.518 173.919 158.077C173.802 157.94 173.682 157.801 173.568 157.655C172.89 158.502 172.179 159.129 171.458 159.564C170.124 160.372 168.766 160.522 167.465 160.174C166.783 159.992 166.127 159.668 165.507 159.229C165.478 159.213 165.448 159.197 165.422 159.177C164.702 158.684 164.065 158.067 163.507 157.359C162.497 158.674 161.267 159.639 159.796 160.07C158.965 160.317 158.169 160.405 157.413 160.363C155.536 160.252 153.958 159.33 152.698 157.889C152.578 157.749 152.461 157.606 152.348 157.46C152.15 157.703 151.942 157.937 151.731 158.155C150.806 159.093 149.741 159.755 148.507 159.989C147.01 160.272 145.546 159.859 144.225 158.927C144.186 158.908 144.15 158.885 144.111 158.859C143.39 158.366 142.754 157.749 142.195 157.041C141.186 158.356 139.955 159.32 138.484 159.752C137.653 159.999 136.858 160.087 136.101 160.044C134.225 159.934 132.647 159.012 131.387 157.57C131.264 157.427 131.14 157.278 131.02 157.126C130.484 157.772 129.926 158.285 129.351 158.684C128.137 159.522 126.858 159.827 125.598 159.658C124.384 159.483 123.212 158.869 122.17 157.866C120.894 156.635 119.793 154.801 119.023 152.492C118.533 151.015 118.231 149.395 118.196 147.73C118.163 146.191 118.355 144.622 118.825 143.1C119.046 142.385 119.777 141.993 120.459 142.226C121.14 142.46 121.51 143.226 121.29 143.941C120.907 145.168 120.754 146.437 120.777 147.674C120.806 149.035 121.056 150.369 121.462 151.593C122.088 153.473 122.939 154.928 123.907 155.856C124.553 156.476 125.238 156.856 125.923 156.944C126.569 157.031 127.251 156.856 127.929 156.385C128.481 156.002 129.03 155.434 129.559 154.658C129.234 153.95 128.958 153.194 128.728 152.411C128.043 150.096 127.76 147.496 127.906 145.038C128.208 139.963 128.962 137.074 129.819 135.808C130.829 134.324 131.975 134.23 133.085 135.197C133.738 135.765 134.299 136.86 134.676 138.301C135.653 142.045 135.624 148.827 132.627 154.648L132.575 154.746C132.799 155.1 133.04 155.424 133.293 155.716C134.111 156.652 135.098 157.249 136.244 157.317C136.721 157.346 137.234 157.281 137.783 157.122C138.942 156.781 139.91 155.859 140.699 154.59C140.413 153.986 140.16 153.35 139.936 152.691C139.692 151.986 139.481 151.249 139.319 150.489C138.754 148.002 138.556 145.356 138.624 142.983C138.673 141.194 138.877 139.548 139.179 138.233C139.523 136.739 140.039 135.587 140.679 134.986C141.247 134.45 141.897 134.262 142.611 134.476C143.815 134.843 144.682 136.08 145.205 137.856C145.715 139.58 145.939 141.921 145.854 144.421C145.77 146.882 145.384 149.528 144.663 151.911C144.387 152.824 144.062 153.694 143.682 154.509C143.965 154.947 144.27 155.35 144.591 155.703C145.66 156.882 146.88 157.518 148.039 157.301C148.721 157.171 149.351 156.768 149.926 156.181C150.26 155.84 150.575 155.44 150.874 154.992C150.546 154.281 150.27 153.525 150.036 152.733C149.351 150.418 149.069 147.817 149.215 145.359C149.517 140.278 150.263 137.389 151.124 136.126C152.134 134.642 153.28 134.548 154.39 135.515C155.043 136.084 155.604 137.178 155.981 138.619C156.958 142.363 156.929 149.145 153.932 154.966L153.88 155.064C154.104 155.418 154.345 155.742 154.598 156.035C155.416 156.97 156.403 157.567 157.549 157.635C158.026 157.664 158.539 157.6 159.088 157.44C160.247 157.1 161.215 156.178 162.004 154.908C161.893 154.674 161.789 154.434 161.685 154.194C161.202 153.074 160.806 151.859 160.539 150.619ZM141.744 149.538C141.786 149.632 141.822 149.733 141.841 149.843C141.939 150.304 142.052 150.749 142.182 151.184L142.208 151.093C142.854 148.96 143.202 146.567 143.28 144.327C143.354 142.122 143.166 140.103 142.741 138.658C142.565 138.061 142.377 137.606 142.186 137.343C142.017 137.674 141.848 138.2 141.695 138.872C141.429 140.015 141.257 141.46 141.208 143.054C141.156 145.119 141.306 147.405 141.744 149.538ZM131.176 151.502C132.991 146.843 132.936 141.885 132.186 139.012C132.043 138.467 131.89 138.028 131.738 137.72C131.202 138.814 130.734 141.165 130.497 145.2C130.371 147.307 130.608 149.525 131.176 151.502ZM152.491 151.824C154.306 147.165 154.25 142.207 153.5 139.334C153.358 138.788 153.205 138.35 153.052 138.041C152.517 139.135 152.049 141.486 151.812 145.522C151.689 147.626 151.922 149.846 152.491 151.824ZM163.484 151.551C163.5 151.502 163.513 151.457 163.53 151.408C164.176 149.275 164.523 146.882 164.601 144.642C164.676 142.437 164.487 140.418 164.062 138.973C163.887 138.376 163.698 137.921 163.507 137.658C163.338 137.989 163.169 138.515 163.017 139.187C162.75 140.33 162.578 141.775 162.53 143.369C162.452 145.999 162.715 148.983 163.484 151.551ZM173.714 152.015C175.529 147.356 175.474 142.398 174.724 139.525C174.581 138.98 174.429 138.541 174.276 138.233C173.74 139.327 173.273 141.678 173.036 145.713C172.913 147.817 173.146 150.038 173.714 152.015Z" fill="#999999"/>
<path d="M174.546 123.411C174.546 102.562 203.358 97.0884 211.004 116.485C211.637 118.088 213.185 119.143 214.909 119.143H266.003C279.425 119.143 290.306 130.023 290.306 143.445C290.306 162.32 275.005 177.62 256.13 177.62H186.508C179.901 177.62 174.546 172.265 174.546 165.659V123.411Z" fill="white"/>
<path d="M256.181 141.569C256.517 139.441 258.093 137.72 260.184 137.199L288.285 130.197C292.508 138.43 292.509 145.281 290.397 152.522L260.624 147.704C257.706 147.232 255.719 144.489 256.181 141.569Z" fill="#383838"/>
<ellipse cx="202.328" cy="177.62" rx="11.1129" ry="11.1051" fill="#383838"/>
<ellipse cx="202.328" cy="177.62" rx="5.55646" ry="5.55254" fill="white"/>
<ellipse cx="249.558" cy="177.62" rx="11.1129" ry="11.1051" fill="#383838"/>
<ellipse cx="249.558" cy="177.62" rx="5.55646" ry="5.55254" fill="white"/>
<path d="M189.631 147.685C189.631 145.581 191.324 143.837 193.424 143.704C200.915 143.23 217.083 141.789 236.262 139.657C240.99 139.131 245.143 142.821 245.143 147.578C245.143 152.201 241.21 155.852 236.602 155.485C213.046 153.607 212.33 152.93 193.186 151.492C191.193 151.343 189.631 149.684 189.631 147.685Z" fill="#909090"/>
<g filter="url(#filter0_b_43_3029)">
<path d="M250.289 109.057H253.833L253.157 118.961C253.11 119.656 252.533 120.195 251.836 120.195C251.117 120.195 250.529 119.621 250.512 118.901L250.289 109.057Z" fill="#909090"/>
<path d="M259.908 109.057H256.364L257.267 118.992C257.329 119.673 257.901 120.195 258.585 120.195C259.316 120.195 259.908 119.603 259.908 118.872V109.057Z" fill="#909090"/>
</g>
<g filter="url(#filter1_b_43_3029)">
<path d="M260.244 92.5247C268.968 96.1842 272.325 100.156 274.383 105.92" stroke="#909090" stroke-width="4.10657" stroke-linecap="round"/>
<ellipse cx="274.858" cy="106.537" rx="2.26413" ry="2.26413" fill="#909090"/>
</g>
<g filter="url(#filter2_b_43_3029)">
<path d="M250.095 92.5247C241.371 96.1842 238.014 100.156 235.956 105.92" stroke="#909090" stroke-width="4.10657" stroke-linecap="round"/>
<ellipse cx="235.339" cy="106.537" rx="2.26413" ry="2.26413" fill="#909090"/>
</g>
<g filter="url(#filter3_b_43_3029)">
<rect x="247.483" y="85.3368" width="14.8198" height="24.6996" rx="3.28526" fill="#E4FFFD"/>
<rect x="249.783" y="90.8303" width="10.1259" height="16.2014" rx="3.28526" fill="#BEE2E0"/>
</g>
<g filter="url(#filter4_b_43_3029)">
<rect x="237.603" y="68.0475" width="34.5794" height="24.6996" rx="3.28526" fill="#F4FFFE"/>
<circle cx="243.984" cy="80.603" r="1.44081" fill="#383838"/>
<circle cx="265.39" cy="80.603" r="1.44081" fill="#383838"/>
<path d="M252.011 83.9667C253.489 86.9446 257.146 85.6111 257.859 83.9422" stroke="#383838" stroke-width="1.64263" stroke-linecap="round"/>
</g>
<ellipse cx="244.601" cy="84.7194" rx="2.46996" ry="1.44081" fill="#FFBFBC"/>
<ellipse cx="265.596" cy="84.7194" rx="2.46996" ry="1.44081" fill="#FFBFBC"/>
<defs>
<filter id="filter0_b_43_3029" x="233.862" y="92.6305" width="42.4722" height="43.9911" filterUnits="userSpaceOnUse" color-interpolation-filters="sRGB">
<feFlood flood-opacity="0" result="BackgroundImageFix"/>
<feGaussianBlur in="BackgroundImageFix" stdDeviation="8.21314"/>
<feComposite in2="SourceAlpha" operator="in" result="effect1_backgroundBlur_43_3029"/>
<feBlend mode="normal" in="SourceGraphic" in2="effect1_backgroundBlur_43_3029" result="shape"/>
</filter>
<filter id="filter1_b_43_3029" x="241.764" y="74.0445" width="51.7847" height="51.183" filterUnits="userSpaceOnUse" color-interpolation-filters="sRGB">
<feFlood flood-opacity="0" result="BackgroundImageFix"/>
<feGaussianBlur in="BackgroundImageFix" stdDeviation="8.21314"/>
<feComposite in2="SourceAlpha" operator="in" result="effect1_backgroundBlur_43_3029"/>
<feBlend mode="normal" in="SourceGraphic" in2="effect1_backgroundBlur_43_3029" result="shape"/>
</filter>
<filter id="filter2_b_43_3029" x="216.648" y="74.0445" width="51.9268" height="51.183" filterUnits="userSpaceOnUse" color-interpolation-filters="sRGB">
<feFlood flood-opacity="0" result="BackgroundImageFix"/>
<feGaussianBlur in="BackgroundImageFix" stdDeviation="8.21314"/>
<feComposite in2="SourceAlpha" operator="in" result="effect1_backgroundBlur_43_3029"/>
<feBlend mode="normal" in="SourceGraphic" in2="effect1_backgroundBlur_43_3029" result="shape"/>
</filter>
<filter id="filter3_b_43_3029" x="231.878" y="69.7318" width="46.0298" height="55.9095" filterUnits="userSpaceOnUse" color-interpolation-filters="sRGB">
<feFlood flood-opacity="0" result="BackgroundImageFix"/>
<feGaussianBlur in="BackgroundImageFix" stdDeviation="7.80249"/>
<feComposite in2="SourceAlpha" operator="in" result="effect1_backgroundBlur_43_3029"/>
<feBlend mode="normal" in="SourceGraphic" in2="effect1_backgroundBlur_43_3029" result="shape"/>
</filter>
<filter id="filter4_b_43_3029" x="229.39" y="59.8343" width="51.0059" height="41.1259" filterUnits="userSpaceOnUse" color-interpolation-filters="sRGB">
<feFlood flood-opacity="0" result="BackgroundImageFix"/>
<feGaussianBlur in="BackgroundImageFix" stdDeviation="4.10657"/>
<feComposite in2="SourceAlpha" operator="in" result="effect1_backgroundBlur_43_3029"/>
<feBlend mode="normal" in="SourceGraphic" in2="effect1_backgroundBlur_43_3029" result="shape"/>
</filter>
</defs>
</svg>
