<svg width="428" height="264" viewBox="0 0 428 264" fill="none" xmlns="http://www.w3.org/2000/svg">
<rect x="62" y="6" width="303" height="252" rx="30" fill="#96E0F0" stroke="#56BD7A" stroke-width="12"/>
<path d="M406.656 141.314L423.313 124.657" stroke="#7E7E7E" stroke-width="8" stroke-linecap="round"/>
<path d="M406.656 108L423.313 124.657" stroke="#7E7E7E" stroke-width="8" stroke-linecap="round"/>
<path d="M20.6567 141.314L3.99989 124.657" stroke="#7E7E7E" stroke-width="8" stroke-linecap="round"/>
<path d="M20.6567 108L3.99989 124.657" stroke="#7E7E7E" stroke-width="8" stroke-linecap="round"/>
<path d="M126.5 166.605C125.742 166.605 125.131 165.994 125.131 165.236C125.131 164.479 125.742 163.867 126.5 163.867H150.671C150.77 163.867 150.869 163.876 150.963 163.9C151.829 164.032 152.638 164.276 153.363 164.667C154.163 165.1 154.845 165.697 155.372 166.497C157.184 169.241 156.915 171.786 155.636 173.668C154.803 174.896 153.532 175.809 152.13 176.289C150.718 176.774 149.156 176.821 147.745 176.303C145.608 175.522 143.877 173.532 143.623 169.928C143.571 169.175 144.14 168.525 144.893 168.474C145.646 168.422 146.295 168.991 146.347 169.744C146.512 172.068 147.481 173.301 148.672 173.734C149.476 174.026 150.398 173.988 151.25 173.697C152.116 173.4 152.888 172.854 153.377 172.134C154.078 171.104 154.182 169.65 153.09 167.998C152.822 167.594 152.474 167.288 152.064 167.067C151.636 166.836 151.137 166.685 150.591 166.601H126.5V166.605ZM120.251 154.291C119.493 154.291 118.882 153.68 118.882 152.922C118.882 152.165 119.493 151.553 120.251 151.553H144.347C144.898 151.468 145.397 151.318 145.825 151.087C146.234 150.866 146.582 150.56 146.851 150.155C147.942 148.504 147.834 147.05 147.138 146.019C146.648 145.299 145.877 144.754 145.011 144.457C144.159 144.165 143.232 144.128 142.432 144.42C141.246 144.852 140.272 146.085 140.108 148.41C140.056 149.163 139.407 149.732 138.654 149.68C137.901 149.628 137.332 148.979 137.383 148.226C137.637 144.622 139.369 142.632 141.505 141.85C142.917 141.338 144.479 141.385 145.891 141.865C147.293 142.344 148.563 143.262 149.396 144.485C150.676 146.368 150.944 148.913 149.133 151.656C148.606 152.456 147.923 153.054 147.124 153.487C146.399 153.877 145.59 154.122 144.724 154.254C144.63 154.273 144.531 154.287 144.432 154.287H120.251V154.291ZM114.369 160.451C113.612 160.451 113 159.834 113 159.082C113 158.324 113.612 157.712 114.369 157.712H164.75C165.3 157.628 165.799 157.477 166.223 157.246C166.632 157.025 166.98 156.719 167.249 156.315C168.34 154.663 168.232 153.209 167.536 152.179C167.046 151.459 166.274 150.913 165.409 150.617C164.557 150.325 163.63 150.287 162.83 150.579C161.644 151.012 160.67 152.245 160.506 154.569C160.454 155.322 159.805 155.891 159.052 155.84C158.299 155.788 157.729 155.138 157.781 154.386C158.035 150.781 159.767 148.791 161.903 148.01C163.315 147.497 164.877 147.544 166.289 148.024C167.691 148.504 168.961 149.421 169.794 150.645C171.074 152.527 171.342 155.073 169.531 157.816C169.004 158.616 168.321 159.213 167.521 159.646C166.797 160.037 165.987 160.281 165.122 160.413C165.028 160.432 164.929 160.446 164.83 160.446H114.369V160.451Z" fill="#5FA2B0"/>
<path d="M181.592 134.396C181.592 114.809 208.661 109.666 215.845 127.888C216.439 129.395 217.893 130.385 219.513 130.385H267.515C280.125 130.385 290.347 140.608 290.347 153.217C290.347 170.95 275.972 185.325 258.24 185.325H192.83C186.624 185.325 181.592 180.293 181.592 174.087V134.396Z" fill="white"/>
<path d="M258.287 151.455C258.603 149.456 260.084 147.839 262.048 147.349L288.449 140.771C292.417 148.506 292.417 154.943 290.433 161.745L262.462 157.219C259.72 156.775 257.854 154.198 258.287 151.455Z" fill="#383838"/>
<ellipse cx="207.693" cy="185.325" rx="10.4405" ry="10.4331" fill="#383838"/>
<ellipse cx="207.693" cy="185.325" rx="5.22025" ry="5.21656" fill="white"/>
<ellipse cx="252.065" cy="185.325" rx="10.4405" ry="10.4331" fill="#383838"/>
<ellipse cx="252.065" cy="185.325" rx="5.22025" ry="5.21656" fill="white"/>
<path d="M194.618 158.675C194.304 155.908 196.152 153.324 198.921 153.032C206.736 152.206 214.287 153.24 235.646 151.945C238.901 151.748 241.681 154.318 241.681 157.579C241.681 160.777 238.995 163.325 235.8 163.204C215.27 162.429 215.57 163.274 199.978 163.424C197.243 163.45 194.927 161.393 194.618 158.675Z" fill="#909090"/>
<rect x="248.447" y="93.1529" width="15.8983" height="8.90305" rx="4" fill="#5A5A5A"/>
<rect x="252.581" y="96.3326" width="7.63119" height="5.72339" rx="2" fill="#D9D9D9"/>
<path d="M236.534 102.177C236.996 100.42 238.585 99.1943 240.402 99.1943H272.264C273.99 99.1943 275.521 100.302 276.062 101.941L283.598 124.784C284.452 127.372 282.524 130.037 279.799 130.037H234.397C231.775 130.037 229.862 127.556 230.529 125.02L236.534 102.177Z" fill="#5A5A5A"/>
<path d="M243.609 113.758L244.566 113.788C245.125 113.788 245.532 113.931 245.789 114.219C246.052 114.512 246.183 114.911 246.183 115.413V116.53C246.183 116.843 246.131 117.118 246.026 117.353C245.914 117.581 245.769 117.751 245.592 117.862C245.263 118.084 244.921 118.195 244.566 118.195C243.901 118.195 243.392 118.182 243.037 118.156C242.682 118.13 242.192 118.064 241.567 117.96V117.421H244.566C244.875 117.421 245.098 117.333 245.236 117.157C245.381 116.98 245.454 116.765 245.454 116.51V115.433C245.454 114.996 245.325 114.718 245.069 114.601C244.937 114.542 244.77 114.512 244.566 114.512H243.047C242.83 114.512 242.639 114.574 242.474 114.699C242.317 114.823 242.238 115.005 242.238 115.247H241.587L241.804 110.987H245.966V111.711H242.474L242.356 114.082C242.534 113.866 242.951 113.758 243.609 113.758Z" fill="white"/>
<path d="M247.451 116.569V112.573C247.451 112.064 247.609 111.672 247.925 111.398C248.247 111.124 248.655 110.987 249.148 110.987H250.766C251.331 110.987 251.746 111.137 252.009 111.437C252.278 111.731 252.413 112.11 252.413 112.573V116.569C252.413 117.627 251.864 118.156 250.766 118.156H249.148C248.655 118.156 248.247 118.028 247.925 117.774C247.609 117.519 247.451 117.118 247.451 116.569ZM248.181 116.569C248.181 116.869 248.274 117.088 248.458 117.225C248.648 117.362 248.879 117.431 249.148 117.431H250.766C251.378 117.431 251.683 117.144 251.683 116.569V112.573C251.683 111.999 251.378 111.711 250.766 111.711H249.148C248.819 111.711 248.576 111.79 248.418 111.946C248.26 112.11 248.181 112.319 248.181 112.573V116.569Z" fill="white"/>
<path d="M253.79 116.569V112.573C253.79 112.064 253.948 111.672 254.264 111.398C254.586 111.124 254.994 110.987 255.487 110.987H257.105C257.67 110.987 258.085 111.137 258.348 111.437C258.617 111.731 258.752 112.11 258.752 112.573V116.569C258.752 117.627 258.203 118.156 257.105 118.156H255.487C254.994 118.156 254.586 118.028 254.264 117.774C253.948 117.519 253.79 117.118 253.79 116.569ZM254.52 116.569C254.52 116.869 254.612 117.088 254.796 117.225C254.987 117.362 255.217 117.431 255.487 117.431H257.105C257.716 117.431 258.022 117.144 258.022 116.569V112.573C258.022 111.999 257.716 111.711 257.105 111.711H255.487C255.158 111.711 254.915 111.79 254.757 111.946C254.599 112.11 254.52 112.319 254.52 112.573V116.569Z" fill="white"/>
<path d="M260.129 116.569V112.573C260.129 112.064 260.287 111.672 260.602 111.398C260.925 111.124 261.332 110.987 261.826 110.987H263.443C264.009 110.987 264.423 111.137 264.686 111.437C264.956 111.731 265.091 112.11 265.091 112.573V116.569C265.091 117.627 264.542 118.156 263.443 118.156H261.826C261.332 118.156 260.925 118.028 260.602 117.774C260.287 117.519 260.129 117.118 260.129 116.569ZM260.859 116.569C260.859 116.869 260.951 117.088 261.135 117.225C261.326 117.362 261.556 117.431 261.826 117.431H263.443C264.055 117.431 264.361 117.144 264.361 116.569V112.573C264.361 111.999 264.055 111.711 263.443 111.711H261.826C261.497 111.711 261.253 111.79 261.096 111.946C260.938 112.11 260.859 112.319 260.859 112.573V116.569Z" fill="white"/>
<path d="M266.468 116.569V112.573C266.468 112.064 266.625 111.672 266.941 111.398C267.263 111.124 267.671 110.987 268.164 110.987H269.782C270.348 110.987 270.762 111.137 271.025 111.437C271.295 111.731 271.429 112.11 271.429 112.573V116.569C271.429 117.627 270.88 118.156 269.782 118.156H268.164C267.671 118.156 267.263 118.028 266.941 117.774C266.625 117.519 266.468 117.118 266.468 116.569ZM267.198 116.569C267.198 116.869 267.29 117.088 267.474 117.225C267.665 117.362 267.895 117.431 268.164 117.431H269.782C270.394 117.431 270.699 117.144 270.699 116.569V112.573C270.699 111.999 270.394 111.711 269.782 111.711H268.164C267.835 111.711 267.592 111.79 267.434 111.946C267.277 112.11 267.198 112.319 267.198 112.573V116.569Z" fill="white"/>
</svg>
