<svg width="372" height="215" viewBox="0 0 372 215" fill="none" xmlns="http://www.w3.org/2000/svg">
<rect x="58" y="4" width="255" height="207" rx="20" fill="#ECECEC" stroke="#56BD7A" stroke-width="8"/>
<path d="M116.448 165.094C114.102 163.199 113.972 159.654 116.366 157.819C134.509 143.911 165.418 136.024 237.314 125.947C248.773 124.34 259 133.273 259 144.845C259 156.524 248.618 165.462 237.042 163.915C170.003 154.958 144.308 156.405 121.591 165.803C119.872 166.514 117.895 166.264 116.448 165.094Z" fill="#909090"/>
<path d="M350.654 126.314L367.311 109.657" stroke="#7E7E7E" stroke-width="8" stroke-linecap="round"/>
<path d="M350.654 92.9998L367.311 109.657" stroke="#7E7E7E" stroke-width="8" stroke-linecap="round"/>
<path d="M20.6572 126.314L4.00038 109.657" stroke="#D8D8D8" stroke-width="8" stroke-linecap="round"/>
<path d="M20.6572 92.9998L4.00038 109.657" stroke="#D8D8D8" stroke-width="8" stroke-linecap="round"/>
</svg>
