<svg width="511" height="271" viewBox="0 0 511 271" fill="none" xmlns="http://www.w3.org/2000/svg">
<rect x="67.5447" y="6.31348" width="377.281" height="258.03" rx="18" fill="#ECECEC" stroke="#56BD7A" stroke-width="12"/>
<path d="M161.201 205.184C157.905 202.743 157.737 197.867 161.106 195.527C186.26 178.056 229.262 168.163 329.321 155.397C343.604 153.574 356.246 164.737 356.246 179.136V179.881C356.246 194.404 343.397 205.575 328.984 203.791C234.494 192.096 198.989 193.906 167.412 205.998C165.335 206.793 162.989 206.508 161.201 205.184V205.184Z" fill="#909090"/>
<path d="M481.877 156.216L504.709 135.296" stroke="#7E7E7E" stroke-width="12" stroke-linecap="round"/>
<path d="M481.877 114.376L504.709 135.296" stroke="#7E7E7E" stroke-width="12" stroke-linecap="round"/>
<path d="M29.55 156.216L6.71831 135.296" stroke="#D8D8D8" stroke-width="12" stroke-linecap="round"/>
<path d="M29.55 114.376L6.71831 135.296" stroke="#D8D8D8" stroke-width="12" stroke-linecap="round"/>
</svg>
