<svg width="428" height="240" viewBox="0 0 428 240" fill="none" xmlns="http://www.w3.org/2000/svg">
<rect x="68" width="291" height="240" rx="24" fill="#96E0F0"/>
<path d="M406.655 129.314L423.312 112.657" stroke="#7E7E7E" stroke-width="8" stroke-linecap="round"/>
<path d="M406.655 96L423.312 112.657" stroke="#7E7E7E" stroke-width="8" stroke-linecap="round"/>
<path d="M20.6567 129.314L3.99989 112.657" stroke="#D8D8D8" stroke-width="8" stroke-linecap="round"/>
<path d="M20.6567 96L3.99989 112.657" stroke="#D8D8D8" stroke-width="8" stroke-linecap="round"/>
<path d="M125.5 152.605C124.742 152.605 124.131 151.994 124.131 151.236C124.131 150.479 124.742 149.867 125.5 149.867H149.671C149.77 149.867 149.869 149.876 149.963 149.9C150.829 150.032 151.638 150.276 152.363 150.667C153.163 151.1 153.845 151.697 154.372 152.497C156.184 155.241 155.915 157.786 154.636 159.668C153.803 160.896 152.532 161.809 151.13 162.289C149.718 162.774 148.156 162.821 146.745 162.303C144.608 161.522 142.877 159.532 142.623 155.928C142.571 155.175 143.14 154.525 143.893 154.474C144.646 154.422 145.295 154.991 145.347 155.744C145.512 158.068 146.481 159.301 147.672 159.734C148.476 160.026 149.398 159.988 150.25 159.697C151.116 159.4 151.888 158.854 152.377 158.134C153.078 157.104 153.182 155.65 152.09 153.998C151.822 153.594 151.474 153.288 151.064 153.067C150.636 152.836 150.137 152.685 149.591 152.601H125.5V152.605ZM119.251 140.291C118.493 140.291 117.882 139.68 117.882 138.922C117.882 138.165 118.493 137.553 119.251 137.553H143.347C143.898 137.468 144.397 137.318 144.825 137.087C145.234 136.866 145.582 136.56 145.851 136.155C146.942 134.504 146.834 133.05 146.138 132.019C145.648 131.299 144.877 130.754 144.011 130.457C143.159 130.165 142.232 130.128 141.432 130.42C140.246 130.852 139.272 132.085 139.108 134.41C139.056 135.163 138.407 135.732 137.654 135.68C136.901 135.628 136.332 134.979 136.383 134.226C136.637 130.622 138.369 128.632 140.505 127.85C141.917 127.338 143.479 127.385 144.891 127.865C146.293 128.344 147.563 129.262 148.396 130.485C149.676 132.368 149.944 134.913 148.133 137.656C147.606 138.456 146.923 139.054 146.124 139.487C145.399 139.877 144.59 140.122 143.724 140.254C143.63 140.273 143.531 140.287 143.432 140.287H119.251V140.291ZM113.369 146.451C112.612 146.451 112 145.834 112 145.082C112 144.324 112.612 143.712 113.369 143.712H163.75C164.3 143.628 164.799 143.477 165.223 143.246C165.632 143.025 165.98 142.719 166.249 142.315C167.34 140.663 167.232 139.209 166.536 138.179C166.046 137.459 165.274 136.913 164.409 136.617C163.557 136.325 162.63 136.287 161.83 136.579C160.644 137.012 159.67 138.245 159.506 140.569C159.454 141.322 158.805 141.891 158.052 141.84C157.299 141.788 156.729 141.138 156.781 140.386C157.035 136.781 158.767 134.791 160.903 134.01C162.315 133.497 163.877 133.544 165.289 134.024C166.691 134.504 167.961 135.421 168.794 136.645C170.074 138.527 170.342 141.073 168.531 143.816C168.004 144.616 167.321 145.213 166.521 145.646C165.797 146.037 164.987 146.281 164.122 146.413C164.028 146.432 163.929 146.446 163.83 146.446H113.369V146.451Z" fill="#5FA2B0"/>
<path d="M180.592 120.396C180.592 100.809 207.661 95.6659 214.845 113.888C215.439 115.395 216.893 116.385 218.513 116.385H266.515C279.125 116.385 289.347 126.608 289.347 139.217C289.347 156.95 274.972 171.325 257.24 171.325H191.83C185.624 171.325 180.592 166.293 180.592 160.087V120.396Z" fill="white"/>
<path d="M257.287 137.455C257.603 135.456 259.084 133.839 261.048 133.349L287.449 126.771C291.417 134.506 291.417 140.943 289.433 147.745L261.462 143.219C258.72 142.775 256.854 140.198 257.287 137.455Z" fill="#383838"/>
<ellipse cx="206.693" cy="171.325" rx="10.4405" ry="10.4331" fill="#383838"/>
<ellipse cx="206.693" cy="171.325" rx="5.22025" ry="5.21656" fill="white"/>
<ellipse cx="251.065" cy="171.325" rx="10.4405" ry="10.4331" fill="#383838"/>
<ellipse cx="251.065" cy="171.325" rx="5.22025" ry="5.21656" fill="white"/>
<path d="M193.618 144.675C193.304 141.908 195.152 139.324 197.921 139.032C205.736 138.206 213.287 139.24 234.646 137.945C237.901 137.748 240.681 140.318 240.681 143.579C240.681 146.777 237.995 149.325 234.8 149.204C214.27 148.429 214.57 149.274 198.978 149.424C196.243 149.45 193.927 147.393 193.618 144.675Z" fill="#909090"/>
<rect x="247.447" y="79.1529" width="15.8983" height="8.90305" rx="4" fill="#5A5A5A"/>
<rect x="251.581" y="82.3326" width="7.63119" height="5.72339" rx="2" fill="#D9D9D9"/>
<path d="M235.534 88.1773C235.996 86.4195 237.585 85.1943 239.402 85.1943H271.264C272.99 85.1943 274.521 86.3017 275.062 87.9411L282.598 110.784C283.452 113.372 281.524 116.037 278.799 116.037H233.397C230.775 116.037 228.862 113.556 229.529 111.02L235.534 88.1773Z" fill="#5A5A5A"/>
<path d="M242.609 99.7583L243.566 99.7877C244.125 99.7877 244.532 99.9314 244.789 100.219C245.052 100.512 245.183 100.911 245.183 101.413V102.53C245.183 102.843 245.131 103.118 245.026 103.353C244.914 103.581 244.769 103.751 244.592 103.862C244.263 104.084 243.921 104.195 243.566 104.195C242.901 104.195 242.392 104.182 242.037 104.156C241.682 104.13 241.192 104.064 240.567 103.96V103.421H243.566C243.875 103.421 244.098 103.333 244.236 103.157C244.381 102.98 244.454 102.765 244.454 102.51V101.433C244.454 100.996 244.325 100.718 244.069 100.601C243.937 100.542 243.77 100.512 243.566 100.512H242.047C241.83 100.512 241.639 100.574 241.474 100.699C241.317 100.823 241.238 101.005 241.238 101.247H240.587L240.804 96.9867H244.966V97.7114H241.474L241.356 100.082C241.534 99.8661 241.951 99.7583 242.609 99.7583Z" fill="white"/>
<path d="M246.451 102.569V98.5733C246.451 98.064 246.609 97.6723 246.925 97.398C247.247 97.1238 247.655 96.9867 248.148 96.9867H249.766C250.331 96.9867 250.746 97.1369 251.009 97.4372C251.278 97.731 251.413 98.1097 251.413 98.5733V102.569C251.413 103.627 250.864 104.156 249.766 104.156H248.148C247.655 104.156 247.247 104.028 246.925 103.774C246.609 103.519 246.451 103.118 246.451 102.569ZM247.181 102.569C247.181 102.869 247.274 103.088 247.458 103.225C247.648 103.362 247.879 103.431 248.148 103.431H249.766C250.378 103.431 250.683 103.144 250.683 102.569V98.5733C250.683 97.9987 250.378 97.7114 249.766 97.7114H248.148C247.819 97.7114 247.576 97.7898 247.418 97.9465C247.26 98.1097 247.181 98.3186 247.181 98.5733V102.569Z" fill="white"/>
<path d="M252.79 102.569V98.5733C252.79 98.064 252.948 97.6723 253.264 97.398C253.586 97.1238 253.994 96.9867 254.487 96.9867H256.105C256.67 96.9867 257.085 97.1369 257.348 97.4372C257.617 97.731 257.752 98.1097 257.752 98.5733V102.569C257.752 103.627 257.203 104.156 256.105 104.156H254.487C253.994 104.156 253.586 104.028 253.264 103.774C252.948 103.519 252.79 103.118 252.79 102.569ZM253.52 102.569C253.52 102.869 253.612 103.088 253.796 103.225C253.987 103.362 254.217 103.431 254.487 103.431H256.105C256.716 103.431 257.022 103.144 257.022 102.569V98.5733C257.022 97.9987 256.716 97.7114 256.105 97.7114H254.487C254.158 97.7114 253.915 97.7898 253.757 97.9465C253.599 98.1097 253.52 98.3186 253.52 98.5733V102.569Z" fill="white"/>
<path d="M259.129 102.569V98.5733C259.129 98.064 259.287 97.6723 259.602 97.398C259.925 97.1238 260.332 96.9867 260.826 96.9867H262.443C263.009 96.9867 263.423 97.1369 263.686 97.4372C263.956 97.731 264.091 98.1097 264.091 98.5733V102.569C264.091 103.627 263.542 104.156 262.443 104.156H260.826C260.332 104.156 259.925 104.028 259.602 103.774C259.287 103.519 259.129 103.118 259.129 102.569ZM259.859 102.569C259.859 102.869 259.951 103.088 260.135 103.225C260.326 103.362 260.556 103.431 260.826 103.431H262.443C263.055 103.431 263.361 103.144 263.361 102.569V98.5733C263.361 97.9987 263.055 97.7114 262.443 97.7114H260.826C260.497 97.7114 260.253 97.7898 260.096 97.9465C259.938 98.1097 259.859 98.3186 259.859 98.5733V102.569Z" fill="white"/>
<path d="M265.468 102.569V98.5733C265.468 98.064 265.625 97.6723 265.941 97.398C266.263 97.1238 266.671 96.9867 267.164 96.9867H268.782C269.348 96.9867 269.762 97.1369 270.025 97.4372C270.295 97.731 270.429 98.1097 270.429 98.5733V102.569C270.429 103.627 269.88 104.156 268.782 104.156H267.164C266.671 104.156 266.263 104.028 265.941 103.774C265.625 103.519 265.468 103.118 265.468 102.569ZM266.198 102.569C266.198 102.869 266.29 103.088 266.474 103.225C266.665 103.362 266.895 103.431 267.164 103.431H268.782C269.394 103.431 269.699 103.144 269.699 102.569V98.5733C269.699 97.9987 269.394 97.7114 268.782 97.7114H267.164C266.835 97.7114 266.592 97.7898 266.434 97.9465C266.277 98.1097 266.198 98.3186 266.198 98.5733V102.569Z" fill="white"/>
</svg>
