<svg width="428" height="240" viewBox="0 0 428 240" fill="none" xmlns="http://www.w3.org/2000/svg">
<rect x="68" width="291" height="240" rx="24" fill="#96E0F0"/>
<path d="M406.655 129.314L423.312 112.657" stroke="#7E7E7E" stroke-width="8" stroke-linecap="round"/>
<path d="M406.655 96L423.312 112.657" stroke="#7E7E7E" stroke-width="8" stroke-linecap="round"/>
<path d="M20.6567 129.314L3.99989 112.657" stroke="#7E7E7E" stroke-width="8" stroke-linecap="round"/>
<path d="M20.6567 96L3.99989 112.657" stroke="#7E7E7E" stroke-width="8" stroke-linecap="round"/>
<path d="M156.863 127.109C156.863 104.856 187.616 99.0128 195.778 119.716C196.452 121.428 198.105 122.553 199.945 122.553H254.482C268.808 122.553 280.422 134.166 280.422 148.493C280.422 168.639 264.09 184.971 243.944 184.971H169.63C162.579 184.971 156.863 179.254 156.863 172.203V127.109Z" fill="white"/>
<path d="M243.998 146.49C244.357 144.219 246.039 142.382 248.271 141.826L278.265 134.352C282.773 143.14 282.773 150.453 280.519 158.181L248.741 153.039C245.626 152.535 243.505 149.607 243.998 146.49Z" fill="#383838"/>
<ellipse cx="186.517" cy="184.971" rx="11.8617" ry="11.8533" fill="#383838"/>
<ellipse cx="186.517" cy="184.971" rx="5.93084" ry="5.92665" fill="white"/>
<ellipse cx="236.929" cy="184.971" rx="11.8617" ry="11.8533" fill="#383838"/>
<ellipse cx="236.929" cy="184.971" rx="5.93084" ry="5.92665" fill="white"/>
<path d="M172.742 162.199C171.797 161.313 171.739 159.821 172.699 158.951C180.342 152.021 193.289 148.084 223.422 143.134C229.058 142.208 234.148 146.584 234.148 152.296C234.148 158.068 228.942 162.437 223.236 161.571C195.835 157.41 184.956 158.127 175.443 162.599C174.542 163.022 173.469 162.879 172.742 162.199Z" fill="#919191"/>
<path d="M150.422 104.082C150.422 100.653 150.688 100.002 154.117 100.002H177.431C180.86 100.002 183.639 102.781 183.639 106.21V112.029C183.639 115.458 180.86 118.237 177.431 118.237H154.117C150.688 118.237 150.423 117.493 150.423 114.064L150.422 104.082Z" fill="#5A5A5A"/>
<path d="M156.444 102.718C156.444 99.9659 157.244 98.0083 158.559 96.6198C162.496 92.4636 171.054 93.4061 176.62 93.4061H193.573C200.43 93.4061 200.657 98.9647 200.657 105.822V111.276C200.657 118.133 200.43 123.691 193.573 123.691H165.756C156.444 123.691 156.444 123.691 156.444 114.38V102.718Z" fill="#AFAFAF"/>
<path d="M176.62 93.4061L163.689 82.2988C161.678 80.565 158.559 81.9943 158.559 84.65V96.6198C162.496 92.4636 171.054 93.4061 176.62 93.4061Z" fill="#AFAFAF"/>
<path d="M145.27 109.713C145.27 114.246 142.601 117.92 139.308 117.92C136.015 117.92 133.346 114.246 133.346 109.713C133.346 105.18 136.015 101.505 139.308 101.505C142.601 101.505 145.27 105.18 145.27 109.713Z" fill="#FFC700"/>
<path d="M115 109.893L138.39 101.536V118.251L115 109.893Z" fill="#FFC700"/>
<circle cx="194.217" cy="108.59" r="14.813" fill="#AFAFAF"/>
<circle cx="169.1" cy="108.59" r="1.93213" fill="#5A5A5A"/>
<circle cx="181.98" cy="108.59" r="3.22022" fill="#5A5A5A"/>
<g filter="url(#filter0_b_43_3135)">
<path d="M237.065 109.855H240.848L240.127 120.427C240.076 121.169 239.46 121.744 238.717 121.744C237.949 121.744 237.321 121.131 237.304 120.363L237.065 109.855Z" fill="#909090"/>
<path d="M247.333 109.855H243.55L244.514 120.46C244.58 121.187 245.19 121.744 245.92 121.744C246.7 121.744 247.333 121.112 247.333 120.332V109.855Z" fill="#909090"/>
</g>
<g filter="url(#filter1_b_43_3135)">
<path d="M247.691 92.2094C257.003 96.1155 260.586 100.355 262.783 106.507" stroke="#909090" stroke-width="4.10657" stroke-linecap="round"/>
<ellipse cx="263.29" cy="107.166" rx="2.41668" ry="2.41668" fill="#909090"/>
</g>
<g filter="url(#filter2_b_43_3135)">
<path d="M236.858 92.2094C227.547 96.1155 223.964 100.355 221.767 106.507" stroke="#909090" stroke-width="4.10657" stroke-linecap="round"/>
<ellipse cx="221.108" cy="107.166" rx="2.41668" ry="2.41668" fill="#909090"/>
</g>
<g filter="url(#filter3_b_43_3135)">
<rect x="234.07" y="84.5373" width="15.8183" height="26.3638" rx="3.28526" fill="#E4FFFD"/>
<rect x="236.524" y="90.4009" width="10.8081" height="17.293" rx="3.28526" fill="#BEE2E0"/>
</g>
<g filter="url(#filter4_b_43_3135)">
<rect x="223.524" y="66.0831" width="36.9093" height="26.3638" rx="3.28526" fill="#F4FFFE"/>
<circle cx="230.335" cy="79.4845" r="1.53789" fill="#383838"/>
<circle cx="253.183" cy="79.4845" r="1.53789" fill="#383838"/>
<path d="M238.903 83.0749C240.481 86.2535 244.384 84.8301 245.145 83.0488" stroke="#383838" stroke-width="1.64263" stroke-linecap="round"/>
</g>
<ellipse cx="230.994" cy="83.8783" rx="2.63637" ry="1.53789" fill="#FFBFBC"/>
<ellipse cx="253.403" cy="83.8783" rx="2.63637" ry="1.53789" fill="#FFBFBC"/>
<defs>
<filter id="filter0_b_43_3135" x="220.639" y="93.4291" width="43.1201" height="44.7415" filterUnits="userSpaceOnUse" color-interpolation-filters="sRGB">
<feFlood flood-opacity="0" result="BackgroundImageFix"/>
<feGaussianBlur in="BackgroundImageFix" stdDeviation="8.21314"/>
<feComposite in2="SourceAlpha" operator="in" result="effect1_backgroundBlur_43_3135"/>
<feBlend mode="normal" in="SourceGraphic" in2="effect1_backgroundBlur_43_3135" result="shape"/>
</filter>
<filter id="filter1_b_43_3135" x="229.211" y="73.7293" width="52.9219" height="52.2797" filterUnits="userSpaceOnUse" color-interpolation-filters="sRGB">
<feFlood flood-opacity="0" result="BackgroundImageFix"/>
<feGaussianBlur in="BackgroundImageFix" stdDeviation="8.21314"/>
<feComposite in2="SourceAlpha" operator="in" result="effect1_backgroundBlur_43_3135"/>
<feBlend mode="normal" in="SourceGraphic" in2="effect1_backgroundBlur_43_3135" result="shape"/>
</filter>
<filter id="filter2_b_43_3135" x="202.265" y="73.7293" width="53.0738" height="52.2797" filterUnits="userSpaceOnUse" color-interpolation-filters="sRGB">
<feFlood flood-opacity="0" result="BackgroundImageFix"/>
<feGaussianBlur in="BackgroundImageFix" stdDeviation="8.21314"/>
<feComposite in2="SourceAlpha" operator="in" result="effect1_backgroundBlur_43_3135"/>
<feBlend mode="normal" in="SourceGraphic" in2="effect1_backgroundBlur_43_3135" result="shape"/>
</filter>
<filter id="filter3_b_43_3135" x="218.465" y="68.9323" width="47.0283" height="57.5737" filterUnits="userSpaceOnUse" color-interpolation-filters="sRGB">
<feFlood flood-opacity="0" result="BackgroundImageFix"/>
<feGaussianBlur in="BackgroundImageFix" stdDeviation="7.80249"/>
<feComposite in2="SourceAlpha" operator="in" result="effect1_backgroundBlur_43_3135"/>
<feBlend mode="normal" in="SourceGraphic" in2="effect1_backgroundBlur_43_3135" result="shape"/>
</filter>
<filter id="filter4_b_43_3135" x="215.311" y="57.8699" width="53.3355" height="42.7901" filterUnits="userSpaceOnUse" color-interpolation-filters="sRGB">
<feFlood flood-opacity="0" result="BackgroundImageFix"/>
<feGaussianBlur in="BackgroundImageFix" stdDeviation="4.10657"/>
<feComposite in2="SourceAlpha" operator="in" result="effect1_backgroundBlur_43_3135"/>
<feBlend mode="normal" in="SourceGraphic" in2="effect1_backgroundBlur_43_3135" result="shape"/>
</filter>
</defs>
</svg>
