<svg width="478" height="242" viewBox="0 0 478 242" fill="none" xmlns="http://www.w3.org/2000/svg">
<path d="M120.464 13.339C120.464 6.08144 126.347 0.197998 133.605 0.197998H477.744V100.961H120.464V13.339Z" fill="#56BD7A"/>
<path d="M383.882 0.197998H477.744V100.961H383.882V0.197998Z" fill="#3F8E5D"/>
<rect x="418.073" y="36.5636" width="5.22122" height="9.09139" rx="1.64263" fill="#4DA36B"/>
<rect x="433.737" y="53.9885" width="5.22122" height="9.09139" rx="1.64263" fill="#4DA36B"/>
<rect width="5.22122" height="9.09139" rx="1.64263" transform="matrix(-1 0 0 1 148.808 34.2908)" fill="#4DA36B"/>
<rect width="5.22122" height="9.09139" rx="1.64263" transform="matrix(-1 0 0 1 328.567 32.0177)" fill="#4DA36B"/>
<rect width="5.22122" height="9.09139" rx="1.64263" transform="matrix(-1 0 0 1 352.435 45.655)" fill="#4DA36B"/>
<rect width="5.22122" height="9.09139" rx="1.64263" transform="matrix(-1 0 0 1 134.636 49.443)" fill="#4DA36B"/>
<path d="M120.464 13.339C120.464 6.08144 126.347 0.197998 133.605 0.197998H477.744V16.8656H120.464V13.339Z" fill="#A9E760"/>
<path d="M383.882 0.197998H477.744V16.8656H383.882V0.197998Z" fill="#7EAC48"/>
<path d="M0.655396 76.2207C0.655396 68.9632 6.53883 63.0797 13.7964 63.0797H478V241.119H0.655396V76.2207Z" fill="#10314B"/>
<path d="M352.596 63.0798H478V241.12H352.596V63.0798Z" fill="#092437"/>
<rect x="250.789" y="118.386" width="6.74216" height="10.6066" rx="1.64263" fill="#1E5987"/>
<rect x="266.97" y="135.054" width="6.74216" height="10.6066" rx="1.64263" fill="#1E5987"/>
<rect width="5.39372" height="10.6066" rx="1.64263" transform="matrix(-1 0 0 1 22.9045 118.386)" fill="#1E5987"/>
<rect width="7.41637" height="15.1523" rx="1.64263" transform="matrix(-1 0 0 1 42.4568 134.296)" fill="#1E5987"/>
<rect width="7.41637" height="13.6371" rx="1.64263" transform="matrix(-1 0 0 1 457.099 111.567)" fill="#10314B"/>
<rect width="7.41637" height="13.6371" rx="1.64263" transform="matrix(-1 0 0 1 441.592 132.023)" fill="#10314B"/>
<path d="M0.655396 76.2207C0.655396 68.9631 6.53883 63.0797 13.7964 63.0797H478V100.961H0.655396V76.2207Z" fill="#367B56"/>
<path d="M352.596 63.0798H478V100.961H352.596V63.0798Z" fill="#275C42"/>
<path d="M0.655396 76.2207C0.655396 68.9632 6.53883 63.0797 13.7964 63.0797H478V86.5658H0.655396V76.2207Z" fill="#275C42"/>
<path d="M352.596 63.0798H478V86.5659H352.596V63.0798Z" fill="#1B4431"/>
<path d="M356.641 117.324V82.0204H341.134L346.687 84.9067C347.774 85.472 348.457 86.5959 348.457 87.8217V100.672V117.324C348.457 119.584 350.289 121.416 352.549 121.416C354.809 121.416 356.641 119.584 356.641 117.324Z" fill="#1B4431"/>
<path d="M357.99 106.009V69.8986H373.496V76.4623C373.496 78.2767 372.026 79.7476 370.211 79.7476H367.816C366.909 79.7476 366.174 80.483 366.174 81.3902V106.009C366.174 107.824 364.703 109.295 362.888 109.295H361.275C359.46 109.295 357.99 107.824 357.99 106.009Z" fill="#1B4431"/>
<path d="M45.1536 103.736V80.5051H60.6606V89.7736C60.6606 91.588 59.1897 93.0589 57.3753 93.0589H54.9805C54.0733 93.0589 53.3379 93.7943 53.3379 94.7015V103.736C53.3379 105.551 51.867 107.022 50.0526 107.022H48.4389C46.6245 107.022 45.1536 105.551 45.1536 103.736Z" fill="#275C42"/>
<path d="M0.655396 76.2207C0.655396 68.9632 6.53883 63.0797 13.7964 63.0797H478V80.5049H0.655396V76.2207Z" fill="#56BD7A"/>
<path d="M352.596 63.0798H478V80.505H352.596V63.0798Z" fill="#3F8E5D"/>
<path d="M352.596 113.003V78.2325H335.066V93.5986C335.066 95.413 336.537 96.8838 338.351 96.8838H341.701C342.609 96.8838 343.344 97.6192 343.344 98.5264V113.003C343.344 115.558 345.415 117.629 347.97 117.629C350.525 117.629 352.596 115.558 352.596 113.003Z" fill="#56BD7A"/>
<path d="M352.596 102.979V66.8683H366.754V73.432C366.754 75.2464 365.283 76.7173 363.469 76.7173H361.711C360.804 76.7173 360.068 77.4527 360.068 78.3599V102.979C360.068 104.793 358.597 106.264 356.783 106.264H355.881C354.067 106.264 352.596 104.793 352.596 102.979Z" fill="#3F8E5D"/>
<path d="M39.0856 101.464V78.2325H54.5926V87.501C54.5926 89.3154 53.1217 90.7863 51.3073 90.7863H48.9125C48.0053 90.7863 47.2699 91.5217 47.2699 92.4289V101.464C47.2699 103.278 45.799 104.749 43.9846 104.749H42.3709C40.5565 104.749 39.0856 103.278 39.0856 101.464Z" fill="#56BD7A"/>
</svg>
