<svg width="708" height="323" viewBox="0 0 708 323" fill="none" xmlns="http://www.w3.org/2000/svg">
<path d="M229 16C229 7.16344 236.163 0 245 0H708V135.091H229V16Z" fill="#56BD7A"/>
<path d="M582.161 0H708V135.091H582.161V0Z" fill="#3F8E5D"/>
<rect x="628" y="48.7547" width="7" height="12.1887" rx="2" fill="#4DA36B"/>
<rect x="649" y="72.1163" width="7" height="12.1887" rx="2" fill="#4DA36B"/>
<rect width="7" height="12.1887" rx="2" transform="matrix(-1 0 0 1 267 45.7075)" fill="#4DA36B"/>
<rect width="7" height="12.1887" rx="2" transform="matrix(-1 0 0 1 508 42.6604)" fill="#4DA36B"/>
<rect width="7" height="12.1887" rx="2" transform="matrix(-1 0 0 1 540 60.9434)" fill="#4DA36B"/>
<rect width="7" height="12.1887" rx="2" transform="matrix(-1 0 0 1 248 66.022)" fill="#4DA36B"/>
<path d="M229 16C229 7.16345 236.163 0 245 0H708V22.3459H229V16Z" fill="#A9E760"/>
<path d="M582.161 0H708V22.3459H582.161V0Z" fill="#7EAC48"/>
<path d="M0 100.305C0 91.4685 7.16344 84.3051 16 84.3051H708V323H0V100.305Z" fill="#10314B"/>
<path d="M522 84.3051H708V323H522V84.3051Z" fill="#092437"/>
<rect x="371" y="158.453" width="10" height="14.2201" rx="2" fill="#1E5987"/>
<rect x="395" y="180.799" width="10" height="14.2201" rx="2" fill="#1E5987"/>
<rect width="8" height="14.2201" rx="2" transform="matrix(-1 0 0 1 33 158.453)" fill="#1E5987"/>
<rect width="11" height="20.3145" rx="2" transform="matrix(-1 0 0 1 62 179.783)" fill="#1E5987"/>
<rect width="11" height="18.283" rx="2" transform="matrix(-1 0 0 1 677 149.311)" fill="#10314B"/>
<rect width="11" height="18.283" rx="2" transform="matrix(-1 0 0 1 654 176.736)" fill="#10314B"/>
<path d="M0 100.305C0 91.4685 7.16344 84.3051 16 84.3051H708V135.091H0V100.305Z" fill="#367B56"/>
<path d="M522 84.3051H708V135.091H522V84.3051Z" fill="#275C42"/>
<path d="M0 100.305C0 91.4685 7.16344 84.3051 16 84.3051H708V115.792H0V100.305Z" fill="#275C42"/>
<path d="M522 84.3051H708V115.792H522V84.3051Z" fill="#1B4431"/>
<path d="M528 156.446V109.698H505L513.562 113.721C514.965 114.38 515.861 115.791 515.861 117.341V134.704V156.446C515.861 159.798 518.578 162.516 521.931 162.516C525.283 162.516 528 159.798 528 156.446Z" fill="#1B4431"/>
<path d="M530 142.264V93.4465H553V102.651C553 104.86 551.209 106.651 549 106.651H544.139C543.034 106.651 542.139 107.546 542.139 108.651V142.264C542.139 144.473 540.348 146.264 538.139 146.264H534C531.791 146.264 530 144.473 530 142.264Z" fill="#1B4431"/>
<path d="M66 139.217V107.667H89V120.497C89 122.706 87.2091 124.497 85 124.497H80.1389C79.0343 124.497 78.1389 125.393 78.1389 126.497V139.217C78.1389 141.426 76.348 143.217 74.1389 143.217H70C67.7909 143.217 66 141.426 66 139.217Z" fill="#275C42"/>
<path d="M0 100.305C0 91.4685 7.16344 84.3051 16 84.3051H708V107.667H0V100.305Z" fill="#56BD7A"/>
<path d="M522 84.3051H708V107.667H522V84.3051Z" fill="#3F8E5D"/>
<path d="M522 150.576V104.62H496V125.625C496 127.834 497.791 129.625 500 129.625H506.278C507.382 129.625 508.278 130.52 508.278 131.625V150.576C508.278 154.365 511.35 157.437 515.139 157.437C518.928 157.437 522 154.365 522 150.576Z" fill="#56BD7A"/>
<path d="M522 138.201V89.3837H543V98.5881C543 100.797 541.209 102.588 539 102.588H535.083C533.979 102.588 533.083 103.484 533.083 104.588V138.201C533.083 140.41 531.292 142.201 529.083 142.201H526C523.791 142.201 522 140.41 522 138.201Z" fill="#3F8E5D"/>
<path d="M57 136.17V104.62H80V117.45C80 119.659 78.2091 121.45 76 121.45H71.1389C70.0343 121.45 69.1389 122.346 69.1389 123.45V136.17C69.1389 138.379 67.348 140.17 65.1389 140.17H61C58.7909 140.17 57 138.379 57 136.17Z" fill="#56BD7A"/>
</svg>
