<svg width="478" height="242" viewBox="0 0 478 242" fill="none" xmlns="http://www.w3.org/2000/svg">
<path d="M120.464 13.339C120.464 6.08144 126.347 0.197998 133.605 0.197998H477.744V100.961H120.464V13.339Z" fill="#56BD7A"/>
<path d="M383.883 0.197998H477.745V100.961H383.883V0.197998Z" fill="#3F8E5D"/>
<rect x="418.073" y="36.5635" width="5.22122" height="9.09139" rx="1.64263" fill="#4DA36B"/>
<rect x="433.737" y="53.9885" width="5.22122" height="9.09139" rx="1.64263" fill="#4DA36B"/>
<rect width="5.22122" height="9.09139" rx="1.64263" transform="matrix(-1 0 0 1 148.808 34.2908)" fill="#4DA36B"/>
<rect width="5.22122" height="9.09139" rx="1.64263" transform="matrix(-1 0 0 1 328.566 32.0176)" fill="#4DA36B"/>
<rect width="5.22122" height="9.09139" rx="1.64263" transform="matrix(-1 0 0 1 352.436 45.655)" fill="#4DA36B"/>
<rect width="5.22122" height="9.09139" rx="1.64263" transform="matrix(-1 0 0 1 134.636 49.4431)" fill="#4DA36B"/>
<path d="M120.464 13.339C120.464 6.08144 126.347 0.197998 133.605 0.197998H477.744V16.8656H120.464V13.339Z" fill="#A9E760"/>
<path d="M383.883 0.197998H477.745V16.8656H383.883V0.197998Z" fill="#7EAC48"/>
<path d="M0.655273 76.2206C0.655273 68.963 6.53871 63.0796 13.7963 63.0796H478V241.119H0.655273V76.2206Z" fill="#10314B"/>
<path d="M352.596 63.0796H478V241.119H352.596V63.0796Z" fill="#092437"/>
<rect x="250.789" y="118.386" width="6.74216" height="10.6066" rx="1.64263" fill="#1E5987"/>
<rect x="266.971" y="135.053" width="6.74216" height="10.6066" rx="1.64263" fill="#1E5987"/>
<rect width="5.39372" height="10.6066" rx="1.64263" transform="matrix(-1 0 0 1 22.9043 118.386)" fill="#1E5987"/>
<rect width="7.41637" height="15.1523" rx="1.64263" transform="matrix(-1 0 0 1 42.457 134.296)" fill="#1E5987"/>
<rect width="7.41637" height="13.6371" rx="1.64263" transform="matrix(-1 0 0 1 457.1 111.567)" fill="#10314B"/>
<rect width="7.41637" height="13.6371" rx="1.64263" transform="matrix(-1 0 0 1 441.592 132.023)" fill="#10314B"/>
<path d="M0.655273 76.2206C0.655273 68.963 6.53871 63.0796 13.7963 63.0796H478V100.96H0.655273V76.2206Z" fill="#367B56"/>
<path d="M352.596 63.0796H478V100.96H352.596V63.0796Z" fill="#275C42"/>
<path d="M0.655273 76.2206C0.655273 68.963 6.53871 63.0796 13.7963 63.0796H478V86.5657H0.655273V76.2206Z" fill="#275C42"/>
<path d="M352.596 63.0796H478V86.5657H352.596V63.0796Z" fill="#1B4431"/>
<path d="M356.641 117.324V82.0205H341.134L346.686 84.9068C347.774 85.4722 348.456 86.596 348.456 87.8218V100.672V117.324C348.456 119.584 350.288 121.417 352.549 121.417C354.809 121.417 356.641 119.584 356.641 117.324Z" fill="#1B4431"/>
<path d="M357.989 106.009V69.8984H373.496V76.4622C373.496 78.2766 372.025 79.7474 370.211 79.7474H367.816C366.909 79.7474 366.173 80.4829 366.173 81.3901V106.009C366.173 107.824 364.703 109.294 362.888 109.294H361.275C359.46 109.294 357.989 107.824 357.989 106.009Z" fill="#1B4431"/>
<path d="M45.1533 103.736V80.5051H60.6603V89.7736C60.6603 91.588 59.1894 93.0589 57.375 93.0589H54.9802C54.073 93.0589 53.3375 93.7943 53.3375 94.7015V103.736C53.3375 105.551 51.8667 107.022 50.0523 107.022H48.4386C46.6242 107.022 45.1533 105.551 45.1533 103.736Z" fill="#275C42"/>
<path d="M0.655273 76.2206C0.655273 68.963 6.53871 63.0796 13.7963 63.0796H478V80.5048H0.655273V76.2206Z" fill="#56BD7A"/>
<path d="M352.596 63.0796H478V80.5048H352.596V63.0796Z" fill="#3F8E5D"/>
<path d="M352.596 113.003V78.2324H335.066V93.5984C335.066 95.4128 336.537 96.8837 338.351 96.8837H341.701C342.609 96.8837 343.344 97.6191 343.344 98.5263V113.003C343.344 115.557 345.415 117.628 347.97 117.628C350.525 117.628 352.596 115.557 352.596 113.003Z" fill="#56BD7A"/>
<path d="M352.596 102.979V66.8682H366.754V73.4319C366.754 75.2463 365.283 76.7172 363.469 76.7172H361.711C360.804 76.7172 360.068 77.4526 360.068 78.3598V102.979C360.068 104.793 358.597 106.264 356.783 106.264H355.881C354.067 106.264 352.596 104.793 352.596 102.979Z" fill="#3F8E5D"/>
<path d="M39.0859 101.464V78.2324H54.5929V87.5009C54.5929 89.3153 53.122 90.7862 51.3076 90.7862H48.9128C48.0056 90.7862 47.2702 91.5216 47.2702 92.4288V101.464C47.2702 103.278 45.7993 104.749 43.9849 104.749H42.3712C40.5568 104.749 39.0859 103.278 39.0859 101.464Z" fill="#56BD7A"/>
</svg>
