<svg width="613" height="679" viewBox="0 0 613 679" fill="none" xmlns="http://www.w3.org/2000/svg">
<path d="M143.074 96.0519C143.074 161.188 17.2949 161.188 17.2949 96.0519C17.2949 68.1586 45.4516 45.5466 80.1846 45.5466C114.918 45.5466 143.074 68.1586 143.074 96.0519Z" fill="#3F8E5D"/>
<path d="M349.352 88.8893C349.352 112.827 341.051 132.079 277.407 132.079C247.048 132.079 247.905 115.742 244.028 97.1458C239.017 73.1057 256.135 45.5466 295.382 45.5466C325.189 45.5466 349.352 64.9518 349.352 88.8893Z" fill="#3F8E5D"/>
<path d="M287.149 50.5053C287.149 76.1437 267.662 91.6905 244.028 97.1458C222.237 102.176 196.921 98.6262 180.105 86.4967C168.825 78.3603 161.369 66.3631 161.369 50.5053C161.369 36.4233 168.546 23.6873 180.122 14.5275C191.476 5.5438 207.061 0 224.259 0C258.992 0 287.149 22.612 287.149 50.5053Z" fill="#3F8E5D"/>
<path d="M198.875 50.5053C198.875 64.5943 191.691 77.3359 180.105 86.4967C177.562 88.5068 174.808 90.3444 171.872 91.9861C161.694 97.6751 149.325 101.011 135.985 101.011C101.252 101.011 73.0952 78.3986 73.0952 50.5053C73.0952 22.612 101.252 0 135.985 0C153.183 0 168.768 5.5438 180.122 14.5275C191.698 23.6873 198.875 36.4233 198.875 50.5053Z" fill="#3F8E5D"/>
<path d="M176.92 111.846C176.92 139.74 148.764 162.352 114.031 162.352C79.2977 162.352 51.141 139.74 51.141 111.846C51.141 83.9529 79.2977 61.341 114.031 61.341C139.984 61.341 162.265 73.9661 171.872 91.9861C175.121 98.0821 176.92 104.795 176.92 111.846Z" fill="#3F8E5D"/>
<path d="M245.299 162.352C84.4876 162.352 412.402 162.352 245.299 162.352V162.352Z" fill="#3F8E5D"/>
<path d="M180.105 86.4967C177.562 88.5068 174.808 90.3444 171.872 91.9861C175.121 98.0821 176.92 104.795 176.92 111.846C176.92 139.74 148.764 162.352 114.031 162.352H245.299C261.993 161.494 277.407 154.118 277.407 132.079C247.048 132.079 247.905 115.742 244.028 97.1458C222.237 102.176 196.921 98.6262 180.105 86.4967Z" fill="#3F8E5D"/>
<path d="M180.122 14.5275C191.476 5.5438 207.061 0 224.259 0H135.985C153.183 0 168.768 5.5438 180.122 14.5275Z" fill="#3F8E5D"/>
<path d="M124.861 104.678C124.861 161.34 0 161.34 0 104.678C0 80.4144 27.9511 60.7445 62.4306 60.7445C96.9101 60.7445 124.861 80.4144 124.861 104.678Z" fill="#275C42"/>
<path d="M327.215 96.3666C327.215 117.19 307.217 132.778 277.627 132.778C247.49 132.778 228.927 121.806 225.079 105.63C220.104 84.7178 237.096 60.7445 276.057 60.7445C305.646 60.7445 327.215 75.5436 327.215 96.3666Z" fill="#275C42"/>
<path d="M267.884 65.058C267.884 87.3605 248.539 100.885 225.079 105.63C203.446 110.006 178.314 106.918 161.621 96.3666C150.424 89.2887 143.023 78.8526 143.023 65.058C143.023 52.8082 150.147 41.7294 161.639 33.7613C172.909 25.9465 188.381 21.124 205.453 21.124C239.933 21.124 267.884 40.7939 267.884 65.058Z" fill="#275C42"/>
<path d="M180.254 65.058C180.254 77.3139 173.123 88.3977 161.621 96.3666C159.098 98.1151 156.364 99.7136 153.448 101.142C143.345 106.09 131.066 108.992 117.824 108.992C83.3441 108.992 55.393 89.3221 55.393 65.058C55.393 40.7939 83.3441 21.124 117.824 21.124C134.896 21.124 150.368 25.9465 161.639 33.7613C173.13 41.7294 180.254 52.8082 180.254 65.058Z" fill="#275C42"/>
<path d="M158.46 118.418C158.46 142.682 130.509 162.352 96.0296 162.352C61.5501 162.352 33.599 142.682 33.599 118.418C33.599 94.1537 61.5501 74.4838 96.0296 74.4838C121.793 74.4838 143.912 85.4663 153.448 101.142C156.674 106.444 158.46 112.284 158.46 118.418Z" fill="#275C42"/>
<path d="M209.611 162.352C49.9742 162.352 375.495 162.352 209.611 162.352V162.352Z" fill="#275C42"/>
<path d="M161.621 96.3666C159.098 98.1151 156.364 99.7136 153.448 101.142C156.674 106.444 158.46 112.284 158.46 118.418C158.46 142.682 130.509 162.352 96.0296 162.352H209.611C228.856 162.352 274.168 169.594 277.627 132.778C247.49 132.778 228.927 121.806 225.079 105.63C203.446 110.006 178.314 106.918 161.621 96.3666Z" fill="#275C42"/>
<path d="M161.639 33.7613C172.909 25.9465 188.381 21.124 205.453 21.124H117.824C134.896 21.124 150.368 25.9465 161.639 33.7613Z" fill="#275C42"/>
<path d="M277.368 87.6554C280.138 92.3403 282.196 103.873 267.324 110.481C264.897 104.596 263.614 91.8942 277.368 87.6554Z" fill="#367B39"/>
<path d="M277.328 122.77C274.894 126.436 266.839 132.648 255.269 126.73C258.783 122.747 268.08 116.486 277.328 122.77Z" fill="#367B39"/>
<path d="M85.1841 114.31C87.9007 118.652 90.1198 129.433 76.3328 135.916C73.909 130.44 72.3874 118.549 85.1841 114.31Z" fill="#367B39"/>
<path d="M36.879 96.8752C43.9486 95.1879 60.1515 95.9642 65.3909 113.024C56.7749 114.052 39.1782 112.18 36.879 96.8752Z" fill="#367B39"/>
<path d="M148.497 39.4132C152.266 45.4372 155.344 60.3922 136.219 69.3856C132.857 61.7897 130.746 45.2935 148.497 39.4132Z" fill="#367B39"/>
<path d="M106.745 54.7292C112.612 55.7614 124.103 61.5142 120.75 75.6342C114.033 73.6264 101.986 66.6278 106.745 54.7292Z" fill="#367B39"/>
<path d="M177.443 80.874L177.443 239.001" stroke="#383838" stroke-width="21.3542" stroke-linecap="round"/>
<path d="M136.282 115.275C149.426 133.382 202.348 143.642 235.554 99.2817" stroke="#383838" stroke-width="21.3542" stroke-linecap="round"/>
<path d="M122.446 252.142C122.446 244.884 128.33 239.001 135.587 239.001H344.513C351.77 239.001 357.654 244.884 357.654 252.142V520.558H122.446V252.142Z" fill="#367B56"/>
<path d="M122.446 252.142C122.446 244.884 128.33 239.001 135.587 239.001H208.971V520.558H122.446V252.142Z" fill="#275C42"/>
<path d="M122.446 252.142C122.446 244.884 128.33 239.001 135.587 239.001H344.513C351.77 239.001 357.654 244.884 357.654 252.142V366.981H122.446V252.142Z" fill="#56BD7A"/>
<path d="M122.446 252.142C122.446 244.884 128.33 239.001 135.587 239.001H208.971V366.981H122.446V252.142Z" fill="#3F8E5D"/>
<rect x="341.742" y="290.193" width="4.8425" height="8.30144" rx="1.64263" fill="#4DA36B"/>
<rect x="325.832" y="319.248" width="4.8425" height="8.30144" rx="1.64263" fill="#4DA36B"/>
<rect x="246.968" y="310.947" width="4.8425" height="8.30144" rx="1.64263" fill="#4DA36B"/>
<rect x="144.584" y="302.646" width="4.8425" height="8.30144" rx="1.64263" fill="#33754C"/>
<rect x="132.823" y="322.708" width="4.8425" height="8.30144" rx="1.64263" fill="#33754C"/>
<rect x="235.207" y="290.193" width="4.8425" height="8.30144" rx="1.64263" fill="#4DA36B"/>
<path d="M291.242 312.427V269.094H273.256V294.946C273.256 296.76 274.727 298.231 276.541 298.231H280.107C281.014 298.231 281.749 298.967 281.749 299.874V312.427C281.749 315.048 283.874 317.173 286.496 317.173C289.117 317.173 291.242 315.048 291.242 312.427Z" fill="#3F8E5D"/>
<path d="M309.921 292.365V261.138H324.448V274.884C324.448 276.698 322.978 278.169 321.163 278.169H321.056C320.149 278.169 319.414 278.904 319.414 279.811V292.365C319.414 294.986 317.289 297.111 314.667 297.111C312.046 297.111 309.921 294.986 309.921 292.365Z" fill="#3F8E5D"/>
<path d="M122.446 261.136C122.446 253.878 128.33 247.995 135.587 247.995H344.513C351.77 247.995 357.654 253.878 357.654 261.136V281.892H122.446V261.136Z" fill="#3F8E5D"/>
<path d="M300.235 302.05V270.823H282.249V284.569C282.249 286.383 283.72 287.854 285.534 287.854H289.1C290.007 287.854 290.743 288.59 290.743 289.497V302.05C290.743 304.671 292.868 306.796 295.489 306.796C298.11 306.796 300.235 304.671 300.235 302.05Z" fill="#A9E760"/>
<path d="M318.913 284.063V252.836H336.9V266.582C336.9 268.396 335.429 269.867 333.614 269.867H330.049C329.141 269.867 328.406 270.603 328.406 271.51V284.063C328.406 286.684 326.281 288.809 323.66 288.809C321.038 288.809 318.913 286.684 318.913 284.063Z" fill="#A9E760"/>
<path d="M122.446 252.142C122.446 244.884 128.33 239.001 135.587 239.001H344.513C351.77 239.001 357.654 244.884 357.654 252.142V272.898H122.446V252.142Z" fill="#A9E760"/>
<path d="M122.446 247.995H208.971V281.892H122.446V247.995Z" fill="#275C42"/>
<path d="M122.446 239.001H208.971V272.898H122.446V239.001Z" fill="#7EAC48"/>
<path d="M177.098 347.608C177.098 340.351 182.981 334.467 190.239 334.467H308.54C315.798 334.467 321.681 340.351 321.681 347.608V584.202H177.098V347.608Z" fill="#A9E760"/>
<path d="M177.098 347.608C177.098 340.351 182.981 334.467 190.239 334.467H228.982V584.202H177.098V347.608Z" fill="#7EAC48"/>
<path d="M177.098 347.608C177.098 340.351 182.981 334.467 190.239 334.467H308.54C315.798 334.467 321.681 340.351 321.681 347.608V355.913H177.098V347.608Z" fill="#D4FC83"/>
<path d="M177.098 347.608C177.098 340.351 182.981 334.467 190.239 334.467H228.982V355.913H177.098V347.608Z" fill="#9EBD61"/>
<rect x="189.55" y="399.496" width="6.91786" height="12.4522" rx="1.64263" fill="#65893A"/>
<rect x="295.393" y="400.879" width="6.91786" height="11.0686" rx="1.64263" fill="#92C951"/>
<rect x="202.002" y="364.214" width="6.91786" height="11.7604" rx="1.64263" fill="#65893A"/>
<rect x="276.715" y="368.365" width="6.91786" height="11.0686" rx="1.64263" fill="#92C951"/>
<path d="M122.446 426.994C122.446 425.179 123.917 423.708 125.732 423.708H450.382C459.212 423.708 467.671 427.263 473.85 433.571L539.203 500.284C545.218 506.425 548.587 514.678 548.587 523.274V675.001C548.587 676.815 547.116 678.286 545.301 678.286H125.732C123.917 678.286 122.446 676.815 122.446 675.001V426.994Z" fill="#367B56"/>
<path d="M122.446 426.994C122.446 425.179 123.917 423.708 125.732 423.708H223.64C226.13 423.708 228.406 425.116 229.518 427.343L265.642 499.661C267.92 504.22 269.105 509.246 269.105 514.342V669.12C269.105 670.935 267.634 672.406 265.82 672.406H125.732C123.917 672.406 122.446 670.935 122.446 669.12V426.994Z" fill="#275C42"/>
<rect x="166.028" y="500.496" width="8.99322" height="12.4522" rx="1.64263" fill="#204E37"/>
<rect x="145.967" y="530.243" width="11.0686" height="14.5275" rx="1.64263" fill="#204E37"/>
<rect x="283.632" y="512.948" width="6.22608" height="9.68501" rx="1.64263" fill="#2B6446"/>
<rect x="303.694" y="520.558" width="7.60965" height="13.1439" rx="1.64263" fill="#2B6446"/>
<path d="M243.057 468.754L227.251 436.549L240.816 440.339C242.683 440.861 244.23 442.218 245.089 444.087L253.746 462.932C255.048 465.767 254.04 469.333 251.453 471.045C248.445 473.036 244.65 472.001 243.057 468.754Z" fill="#1B4431"/>
<path d="M122.446 431.491H230.874L241.434 451.725H122.446V431.491Z" fill="#1B4431"/>
<path d="M244.2 434.793C244.2 432.972 245.681 431.498 247.502 431.508L459.473 432.588C468.246 432.633 476.636 436.184 482.774 442.451L491.86 451.725H247.485C245.671 451.725 244.2 450.255 244.2 448.44V434.793Z" fill="#275C42"/>
<path d="M260.396 463.012L249.735 441.608L259.765 442.775L267.445 459.103C268.329 460.982 267.666 463.364 265.942 464.505C263.96 465.818 261.459 465.144 260.396 463.012Z" fill="#275C42"/>
<path d="M122.446 426.994C122.446 425.179 123.917 423.708 125.732 423.708H450.461C459.245 423.708 467.663 427.226 473.835 433.476L484.942 444.722L125.724 443.95C123.913 443.946 122.446 442.477 122.446 440.665V426.994Z" fill="#56BB7A"/>
<path d="M122.446 423.708H227.598L237.838 443.943H122.446V423.708Z" fill="#3F8D5D"/>
<path d="M122.446 427.772C122.446 425.957 123.917 424.486 125.732 424.486H450.824C459.393 424.486 467.623 427.834 473.758 433.816L484.942 444.721H125.732C123.917 444.721 122.446 443.25 122.446 441.436V427.772Z" fill="#56BB7A"/>
<path d="M122.446 424.486H227.944L237.975 444.721H122.446V424.486Z" fill="#3F8D5D"/>
<path d="M122.446 474.266V443.77H143.2V452.606C143.2 454.42 141.729 455.891 139.915 455.891H135.042C134.135 455.891 133.4 456.627 133.4 457.534V474.266C133.4 477.291 130.948 479.743 127.923 479.743C124.898 479.743 122.446 477.291 122.446 474.266Z" fill="#3F8D5D"/>
<path d="M246.807 461.733L234.17 437.328L248.129 441.251C249.962 441.767 251.487 443.088 252.352 444.912L257.464 455.684C258.82 458.541 257.815 462.173 255.189 463.912C252.209 465.884 248.451 464.907 246.807 461.733Z" fill="#56BB7A"/>
<path d="M264.191 455.875L255.435 438.786L267.465 443.948L271.241 451.892C272.139 453.78 271.476 456.182 269.739 457.332C267.764 458.639 265.272 457.985 264.191 455.875Z" fill="#56BB7A"/>
<path d="M190.933 555.836C190.933 548.578 196.816 542.695 204.074 542.695H599.089C606.347 542.695 612.23 548.578 612.23 555.836V675.518H190.933V555.836Z" fill="#357955"/>
<path d="M190.933 555.836C190.933 548.578 196.816 542.695 204.074 542.695H330.673V675.518H190.933V555.836Z" fill="#1B4431"/>
<path d="M519.531 604.438L519.531 564.141H535.442V572.319C535.442 574.133 533.971 575.604 532.157 575.604H529.571C528.664 575.604 527.929 576.339 527.929 577.246L527.929 604.438C527.929 606.253 526.458 607.723 524.644 607.723H522.817C521.002 607.723 519.531 606.253 519.531 604.438Z" fill="#275C42"/>
<path d="M190.933 555.836C190.933 548.578 196.816 542.695 204.074 542.695H599.089C606.347 542.695 612.23 548.578 612.23 555.836V582.127H190.933V555.836Z" fill="#275C42"/>
<path d="M190.933 555.836C190.933 548.578 196.816 542.695 204.074 542.695H599.089C606.347 542.695 612.23 548.578 612.23 555.836V574.517H190.933V555.836Z" fill="#56BB7A"/>
<path d="M190.933 555.836C190.933 548.578 196.816 542.695 204.074 542.695H330.673V582.127H190.933V555.836Z" fill="#143526"/>
<path d="M190.933 555.836C190.933 548.578 196.816 542.695 204.074 542.695H330.673V574.517H190.933V555.836Z" fill="#3F8D5D"/>
<path d="M527.141 593.37V572.442H543.052V580.62C543.052 582.434 541.581 583.905 539.766 583.905H537.181C536.274 583.905 535.538 584.641 535.538 585.548V593.37C535.538 595.184 534.067 596.655 532.253 596.655H530.426C528.611 596.655 527.141 595.184 527.141 593.37Z" fill="#56BD7A"/>
<rect x="278.098" y="619.483" width="8.99322" height="12.4522" rx="1.64263" fill="#204E37"/>
<rect x="233.132" y="647.847" width="11.0686" height="14.5275" rx="1.64263" fill="#204E37"/>
<rect x="395.701" y="631.936" width="6.22608" height="9.68501" rx="1.64263" fill="#2B6446"/>
<rect x="432.366" y="641.621" width="7.60965" height="13.1439" rx="1.64263" fill="#2B6446"/>
<rect width="6.22608" height="9.68501" rx="1.64263" transform="matrix(-1 0 0 1 571.416 625.018)" fill="#2B6446"/>
<rect width="7.60965" height="13.1439" rx="1.64263" transform="matrix(-1 0 0 1 534.751 634.703)" fill="#2B6446"/>
<g filter="url(#filter0_b_44_186)">
<path d="M289.166 223.781H294.009L293.086 237.314C293.021 238.264 292.232 239.001 291.281 239.001C290.297 239.001 289.494 238.215 289.472 237.232L289.166 223.781Z" fill="#909090"/>
<path d="M302.31 223.781H297.467L298.701 237.356C298.786 238.288 299.567 239.001 300.502 239.001C301.5 239.001 302.31 238.191 302.31 237.193V223.781Z" fill="#909090"/>
</g>
<g filter="url(#filter1_b_44_186)">
<path d="M302.77 201.192C314.69 206.192 319.276 211.62 322.089 219.495" stroke="#909090" stroke-width="4.10657" stroke-linecap="round"/>
<circle cx="322.738" cy="220.339" r="3.09364" fill="#909090"/>
</g>
<g filter="url(#filter2_b_44_186)">
<path d="M288.902 201.192C276.982 206.192 272.395 211.62 269.583 219.495" stroke="#909090" stroke-width="4.10657" stroke-linecap="round"/>
<circle cx="268.739" cy="220.339" r="3.09364" fill="#909090"/>
</g>
<g filter="url(#filter3_b_44_186)">
<rect x="285.332" y="191.371" width="20.2493" height="33.7488" rx="3.28526" fill="#E4FFFD"/>
<rect x="288.475" y="198.877" width="13.8357" height="22.1372" rx="3.28526" fill="#BEE2E0"/>
</g>
<g filter="url(#filter4_b_44_186)">
<rect x="271.833" y="167.747" width="47.2484" height="33.7488" rx="3.28526" fill="#F4FFFE"/>
<circle cx="280.552" cy="184.903" r="1.96868" fill="#383838"/>
<circle cx="309.801" cy="184.903" r="1.96868" fill="#383838"/>
<path d="M291.52 189.499C293.539 193.568 298.536 191.746 299.51 189.465" stroke="#383838" stroke-width="1.64263" stroke-linecap="round"/>
</g>
<ellipse cx="281.395" cy="190.527" rx="3.37488" ry="1.96868" fill="#FFBFBC"/>
<ellipse cx="310.082" cy="190.527" rx="3.37488" ry="1.96868" fill="#FFBFBC"/>
<path d="M347.027 467.999C347.027 444.174 379.966 437.943 388.669 460.121C389.389 461.956 391.159 463.163 393.13 463.163H442.668C454.871 463.163 465.469 471.563 468.256 483.445L469.728 489.724C474.585 510.432 458.87 530.258 437.6 530.258H360.697C353.148 530.258 347.027 524.138 347.027 516.588V467.999Z" fill="white"/>
<path d="M441.679 489.508C441.986 486.849 443.794 484.604 446.327 483.737L466 477C468.5 481.5 472.5 490.5 470 503.5L446.707 496.989C443.42 496.071 441.288 492.899 441.679 489.508Z" fill="#383838"/>
<ellipse cx="378.757" cy="530.259" rx="12.6918" ry="12.7416" fill="#383838"/>
<ellipse cx="378.757" cy="530.259" rx="6.34592" ry="6.37079" fill="#ECECEC"/>
<ellipse cx="432.698" cy="530.259" rx="12.6918" ry="12.7416" fill="#383838"/>
<ellipse cx="432.697" cy="530.259" rx="6.34592" ry="6.37079" fill="#ECECEC"/>
<path d="M364.011 505.774C363.002 504.824 362.94 503.229 363.964 502.295C372.137 494.846 385.978 490.614 418.192 485.295C424.248 484.295 429.721 488.997 429.721 495.135C429.721 501.338 424.124 506.032 417.992 505.097C388.723 500.635 377.088 501.405 366.918 506.205C365.948 506.663 364.791 506.509 364.011 505.774Z" fill="#919191"/>
<path d="M405.603 416.132C405.603 414.317 407.073 412.846 408.888 412.846H419.413C421.227 412.846 422.698 414.317 422.698 416.132V420.638C422.698 422.453 421.227 423.923 419.413 423.923H405.603V416.132Z" fill="#10314B"/>
<path d="M410.072 416.132C410.072 414.317 411.543 412.846 413.358 412.846H422.991C424.805 412.846 426.276 414.317 426.276 416.132V423.923H410.072V416.132Z" fill="#6D7785"/>
<circle cx="415.343" cy="365.148" r="36.6647" fill="white" fill-opacity="0.6"/>
<rect x="408.246" y="337.477" width="14.5888" height="33.5148" rx="3.28526" fill="#F96C67"/>
<path d="M417.888 391.169C416.574 392.78 414.113 392.78 412.798 391.169L397.554 372.493C395.802 370.347 397.329 367.13 400.099 367.13L430.588 367.13C433.358 367.13 434.884 370.347 433.133 372.493L417.888 391.169Z" fill="#F96C67"/>
<path d="M268 525.584C268.137 531.347 272.395 542.911 288.335 543.059C287.281 536.302 281.737 523.346 268 525.584Z" fill="#1B4431"/>
<path d="M306.602 525.174C306.632 530.939 302.657 543.069 286.734 543.069C287.592 536.283 292.805 523.35 306.602 525.174Z" fill="#1B4431"/>
<path d="M195.775 224.273C195.89 229.128 199.477 238.868 212.903 238.993C212.015 233.301 207.346 222.388 195.775 224.273Z" fill="#367B56"/>
<path d="M228.289 223.928C228.315 228.784 224.967 239.001 211.555 239.001C212.278 233.285 216.669 222.392 228.289 223.928Z" fill="#367B56"/>
<path d="M327.906 232.306C327.958 234.513 329.56 238.94 335.559 238.997C335.162 236.41 333.076 231.45 327.906 232.306Z" fill="#56BD7A"/>
<path d="M342.434 232.15C342.445 234.357 340.949 239.001 334.957 239.001C335.28 236.403 337.242 231.451 342.434 232.15Z" fill="#56BD7A"/>
<defs>
<filter id="filter0_b_44_186" x="272.74" y="207.355" width="45.9961" height="48.0718" filterUnits="userSpaceOnUse" color-interpolation-filters="sRGB">
<feFlood flood-opacity="0" result="BackgroundImageFix"/>
<feGaussianBlur in="BackgroundImageFix" stdDeviation="8.21314"/>
<feComposite in2="SourceAlpha" operator="in" result="effect1_backgroundBlur_44_186"/>
<feBlend mode="normal" in="SourceGraphic" in2="effect1_backgroundBlur_44_186" result="shape"/>
</filter>
<filter id="filter1_b_44_186" x="284.29" y="182.712" width="57.9688" height="57.1463" filterUnits="userSpaceOnUse" color-interpolation-filters="sRGB">
<feFlood flood-opacity="0" result="BackgroundImageFix"/>
<feGaussianBlur in="BackgroundImageFix" stdDeviation="8.21314"/>
<feComposite in2="SourceAlpha" operator="in" result="effect1_backgroundBlur_44_186"/>
<feBlend mode="normal" in="SourceGraphic" in2="effect1_backgroundBlur_44_186" result="shape"/>
</filter>
<filter id="filter2_b_44_186" x="249.219" y="182.712" width="58.1631" height="57.1463" filterUnits="userSpaceOnUse" color-interpolation-filters="sRGB">
<feFlood flood-opacity="0" result="BackgroundImageFix"/>
<feGaussianBlur in="BackgroundImageFix" stdDeviation="8.21314"/>
<feComposite in2="SourceAlpha" operator="in" result="effect1_backgroundBlur_44_186"/>
<feBlend mode="normal" in="SourceGraphic" in2="effect1_backgroundBlur_44_186" result="shape"/>
</filter>
<filter id="filter3_b_44_186" x="269.727" y="175.766" width="51.459" height="64.9587" filterUnits="userSpaceOnUse" color-interpolation-filters="sRGB">
<feFlood flood-opacity="0" result="BackgroundImageFix"/>
<feGaussianBlur in="BackgroundImageFix" stdDeviation="7.80249"/>
<feComposite in2="SourceAlpha" operator="in" result="effect1_backgroundBlur_44_186"/>
<feBlend mode="normal" in="SourceGraphic" in2="effect1_backgroundBlur_44_186" result="shape"/>
</filter>
<filter id="filter4_b_44_186" x="263.62" y="159.534" width="63.6743" height="50.1751" filterUnits="userSpaceOnUse" color-interpolation-filters="sRGB">
<feFlood flood-opacity="0" result="BackgroundImageFix"/>
<feGaussianBlur in="BackgroundImageFix" stdDeviation="4.10657"/>
<feComposite in2="SourceAlpha" operator="in" result="effect1_backgroundBlur_44_186"/>
<feBlend mode="normal" in="SourceGraphic" in2="effect1_backgroundBlur_44_186" result="shape"/>
</filter>
</defs>
</svg>
