<svg width="708" height="635" viewBox="0 0 708 635" fill="none" xmlns="http://www.w3.org/2000/svg">
<path d="M0 16C0 7.16345 7.16344 0 16 0H324C332.837 0 340 7.16344 340 16V407H0V16Z" fill="#367B56"/>
<path d="M0 16C0 7.16345 7.16344 0 16 0H125.074V407H0V16Z" fill="#275C42"/>
<path d="M0 16C0 7.16344 7.16344 0 16 0H324C332.837 0 340 7.16344 340 16V185H0V16Z" fill="#56BD7A"/>
<path d="M0 16C0 7.16344 7.16344 0 16 0H125.074V185H0V16Z" fill="#3F8E5D"/>
<rect x="317" y="74" width="7" height="12" rx="2" fill="#4DA36B"/>
<rect x="294" y="116" width="7" height="12" rx="2" fill="#4DA36B"/>
<rect x="180" y="104" width="7" height="12" rx="2" fill="#4DA36B"/>
<rect x="32" y="92" width="7" height="12" rx="2" fill="#33754C"/>
<rect x="15" y="121" width="7" height="12" rx="2" fill="#33754C"/>
<rect x="163" y="74" width="7" height="12" rx="2" fill="#4DA36B"/>
<path d="M244 106.139V43.5H218V81.6184C218 83.8275 219.791 85.6184 222 85.6184H228.278C229.382 85.6184 230.278 86.5138 230.278 87.6184V106.139C230.278 109.928 233.35 113 237.139 113C240.928 113 244 109.928 244 106.139Z" fill="#3F8E5D"/>
<path d="M271 77.1389V32H292V52.6184C292 54.8275 290.209 56.6184 288 56.6184H286.722C285.618 56.6184 284.722 57.5138 284.722 58.6184V77.1389C284.722 80.9282 281.65 84 277.861 84C274.072 84 271 80.9282 271 77.1389Z" fill="#3F8E5D"/>
<path d="M0 29C0 20.1634 7.16344 13 16 13H324C332.837 13 340 20.1634 340 29V62H0V29Z" fill="#3F8E5D"/>
<path d="M257 91.1389V46H231V66.6184C231 68.8275 232.791 70.6184 235 70.6184H241.278C242.382 70.6184 243.278 71.5138 243.278 72.6184V91.1389C243.278 94.9282 246.35 98 250.139 98C253.928 98 257 94.9282 257 91.1389Z" fill="#A9E760"/>
<path d="M284 65.1389V20H310V40.6184C310 42.8275 308.209 44.6184 306 44.6184H299.722C298.618 44.6184 297.722 45.5138 297.722 46.6184V65.1389C297.722 68.9282 294.65 72 290.861 72C287.072 72 284 68.9282 284 65.1389Z" fill="#A9E760"/>
<path d="M0 16C0 7.16345 7.16344 0 16 0H324C332.837 0 340 7.16344 340 16V49H0V16Z" fill="#A9E760"/>
<path d="M0 13H125.074V62H0V13Z" fill="#275C42"/>
<path d="M0 0H125.074V49H0V0Z" fill="#7EAC48"/>
<path d="M79 154C79 145.163 86.1634 138 95 138H272C280.837 138 288 145.163 288 154V499H79V154Z" fill="#A9E760"/>
<path d="M79 154C79 145.163 86.1634 138 95 138H154V499H79V154Z" fill="#7EAC48"/>
<path d="M79 154C79 145.163 86.1634 138 95 138H272C280.837 138 288 145.163 288 154V169H79V154Z" fill="#D4FC83"/>
<path d="M79 154C79 145.163 86.1634 138 95 138H154V169H79V154Z" fill="#9EBD61"/>
<rect x="97" y="232" width="10" height="18" rx="2" fill="#65893A"/>
<rect x="250" y="234" width="10" height="16" rx="2" fill="#92C951"/>
<rect x="115" y="181" width="10" height="17" rx="2" fill="#65893A"/>
<rect x="223" y="187" width="10" height="16" rx="2" fill="#92C951"/>
<path d="M0 271C0 268.791 1.79086 267 4 267H477.189C487.941 267 498.24 271.328 505.764 279.009L604.574 379.877C611.898 387.353 616 397.402 616 407.868V631C616 633.209 614.209 635 612 635H4C1.79086 635 0 633.209 0 631V271Z" fill="#367B56"/>
<path d="M0 271C0 268.791 1.79086 267 4 267H147.205C150.237 267 153.007 268.713 154.362 271.425L207.784 378.372C210.557 383.923 212 390.042 212 396.247V622.5C212 624.709 210.209 626.5 208 626.5H4C1.79086 626.5 0 624.709 0 622.5V271Z" fill="#275C42"/>
<rect x="63" y="378" width="13" height="18" rx="2" fill="#204E37"/>
<rect x="34" y="421" width="16" height="21" rx="2" fill="#204E37"/>
<rect x="233" y="396" width="9" height="14" rx="2" fill="#2B6446"/>
<rect x="262" y="407" width="11" height="19" rx="2" fill="#2B6446"/>
<path d="M174.347 332.116L151.5 285.563L171.775 291.228C174.048 291.863 175.932 293.515 176.978 295.791L189.798 323.701C191.68 327.798 190.224 332.952 186.484 335.428C182.136 338.306 176.651 336.809 174.347 332.116Z" fill="#1B4431"/>
<path d="M0 278.25H156.736L172 307.5H0V278.25Z" fill="#1B4431"/>
<path d="M176 282.271C176 280.053 177.803 278.259 180.02 278.271L490.309 279.852C500.99 279.907 511.206 284.231 518.68 291.861L534 307.5H180C177.791 307.5 176 305.709 176 303.5V282.271Z" fill="#275C42"/>
<path d="M199.412 323.815L184 292.875L198.5 294.563L209.601 318.165C210.879 320.881 209.921 324.325 207.429 325.974C204.563 327.871 200.947 326.898 199.412 323.815Z" fill="#275C42"/>
<path d="M0 271C0 268.791 1.79086 267 4 267H477.286C487.981 267 498.23 271.283 505.745 278.892L524 297.375L3.9914 296.259C1.78562 296.254 0 294.464 0 292.259V271Z" fill="#56BB7A"/>
<path d="M0 267H152L166.803 296.25H0V267Z" fill="#3F8D5D"/>
<path d="M0 272.125C0 269.916 1.79086 268.125 4 268.125H477.727C488.161 268.125 498.181 272.201 505.651 279.485L524 297.375H3.99999C1.79085 297.375 0 295.584 0 293.375V272.125Z" fill="#56BB7A"/>
<path d="M0 268.125H152.5L167 297.375H0V268.125Z" fill="#3F8D5D"/>
<path d="M0 340.083V296H30V309.522C30 311.731 28.2091 313.522 26 313.522H17.8333C16.7288 313.522 15.8333 314.417 15.8333 315.522V340.083C15.8333 344.456 12.2889 348 7.91667 348C3.54441 348 0 344.456 0 340.083Z" fill="#3F8D5D"/>
<path d="M179.767 321.965L161.5 286.688L182.332 292.543C184.565 293.171 186.421 294.78 187.475 297L195.172 313.222C197.132 317.352 195.68 322.603 191.884 325.116C187.576 327.967 182.143 326.555 179.767 321.965Z" fill="#56BB7A"/>
<path d="M204.897 313.499L192.24 288.795L209.63 296.257L215.088 307.741C216.385 310.47 215.426 313.943 212.916 315.604C210.061 317.494 206.459 316.549 204.897 313.499Z" fill="#56BB7A"/>
<path d="M99 455C99 446.163 106.163 439 115 439H692C700.837 439 708 446.163 708 455V631H99V455Z" fill="#357955"/>
<path d="M99 455C99 446.163 106.163 439 115 439H301V631H99V455Z" fill="#1B4431"/>
<path d="M574 529L574 470H597V482.57C597 484.779 595.209 486.57 593 486.57H588.139C587.034 486.57 586.139 487.465 586.139 488.57L586.139 529C586.139 531.209 584.348 533 582.139 533H578C575.791 533 574 531.209 574 529Z" fill="#275C42"/>
<path d="M99 455C99 446.163 106.163 439 115 439H692C700.837 439 708 446.163 708 455V496H99V455Z" fill="#275C42"/>
<path d="M99 455C99 446.163 106.163 439 115 439H692C700.837 439 708 446.163 708 455V485H99V455Z" fill="#56BB7A"/>
<path d="M99 455C99 446.163 106.163 439 115 439H301V496H99V455Z" fill="#143526"/>
<path d="M99 455C99 446.163 106.163 439 115 439H301V485H99V455Z" fill="#3F8D5D"/>
<path d="M585 513V482H608V494.57C608 496.779 606.209 498.57 604 498.57H599.139C598.034 498.57 597.139 499.465 597.139 500.57V513C597.139 515.209 595.348 517 593.139 517H589C586.791 517 585 515.209 585 513Z" fill="#56BD7A"/>
<rect x="225" y="550" width="13" height="18" rx="2" fill="#204E37"/>
<rect x="160" y="591" width="16" height="21" rx="2" fill="#204E37"/>
<rect x="395" y="568" width="9" height="14" rx="2" fill="#2B6446"/>
<rect x="448" y="582" width="11" height="19" rx="2" fill="#2B6446"/>
<rect width="9" height="14" rx="2" transform="matrix(-1 0 0 1 649 558)" fill="#2B6446"/>
<rect width="11" height="19" rx="2" transform="matrix(-1 0 0 1 596 572)" fill="#2B6446"/>
</svg>
