<svg width="613" height="679" viewBox="0 0 613 679" fill="none" xmlns="http://www.w3.org/2000/svg">
<path d="M143.074 96.0519C143.074 161.188 17.2946 161.188 17.2946 96.0519C17.2946 68.1586 45.4513 45.5466 80.1843 45.5466C114.917 45.5466 143.074 68.1586 143.074 96.0519Z" fill="#3F8E5D"/>
<path d="M349.352 88.8893C349.352 112.827 341.051 132.079 277.406 132.079C247.047 132.079 247.905 115.742 244.028 97.1458C239.017 73.1057 256.135 45.5466 295.381 45.5466C325.189 45.5466 349.352 64.9518 349.352 88.8893Z" fill="#3F8E5D"/>
<path d="M287.148 50.5053C287.148 76.1437 267.662 91.6905 244.028 97.1458C222.237 102.176 196.92 98.6262 180.104 86.4967C168.824 78.3603 161.369 66.3631 161.369 50.5053C161.369 36.4233 168.546 23.6873 180.122 14.5275C191.475 5.5438 207.061 0 224.259 0C258.992 0 287.148 22.612 287.148 50.5053Z" fill="#3F8E5D"/>
<path d="M198.874 50.5053C198.874 64.5943 191.691 77.3359 180.104 86.4967C177.562 88.5068 174.808 90.3444 171.871 91.9861C161.694 97.6751 149.324 101.011 135.985 101.011C101.252 101.011 73.0949 78.3986 73.0949 50.5053C73.0949 22.612 101.252 0 135.985 0C153.183 0 168.768 5.5438 180.122 14.5275C191.698 23.6873 198.874 36.4233 198.874 50.5053Z" fill="#3F8E5D"/>
<path d="M176.92 111.846C176.92 139.74 148.763 162.352 114.03 162.352C79.2974 162.352 51.1407 139.74 51.1407 111.846C51.1407 83.9529 79.2974 61.341 114.03 61.341C139.984 61.341 162.265 73.9661 171.871 91.9861C175.121 98.0821 176.92 104.795 176.92 111.846Z" fill="#3F8E5D"/>
<path d="M245.298 162.352C84.4874 162.352 412.401 162.352 245.298 162.352V162.352Z" fill="#3F8E5D"/>
<path d="M180.104 86.4967C177.562 88.5068 174.808 90.3444 171.871 91.9861C175.121 98.0821 176.92 104.795 176.92 111.846C176.92 139.74 148.763 162.352 114.03 162.352H245.298C261.993 161.494 277.406 154.118 277.406 132.079C247.047 132.079 247.905 115.742 244.028 97.1458C222.237 102.176 196.92 98.6262 180.104 86.4967Z" fill="#3F8E5D"/>
<path d="M180.122 14.5275C191.475 5.5438 207.061 0 224.259 0H135.985C153.183 0 168.768 5.5438 180.122 14.5275Z" fill="#3F8E5D"/>
<path d="M124.861 104.678C124.861 161.34 0 161.34 0 104.678C0 80.4143 27.9511 60.7444 62.4306 60.7444C96.9101 60.7444 124.861 80.4143 124.861 104.678Z" fill="#275C42"/>
<path d="M327.215 96.3664C327.215 117.189 307.217 132.778 277.627 132.778C247.49 132.778 228.927 121.806 225.079 105.63C220.104 84.7177 237.096 60.7444 276.057 60.7444C305.646 60.7444 327.215 75.5435 327.215 96.3664Z" fill="#275C42"/>
<path d="M267.884 65.0579C267.884 87.3604 248.539 100.884 225.079 105.63C203.446 110.005 178.314 106.918 161.621 96.3664C150.424 89.2886 143.023 78.8524 143.023 65.0579C143.023 52.8081 150.147 41.7292 161.639 33.7612C172.909 25.9464 188.381 21.1239 205.453 21.1239C239.933 21.1239 267.884 40.7938 267.884 65.0579Z" fill="#275C42"/>
<path d="M180.254 65.0579C180.254 77.3138 173.123 88.3975 161.621 96.3664C159.098 98.1149 156.364 99.7135 153.448 101.142C143.345 106.09 131.066 108.992 117.824 108.992C83.3441 108.992 55.393 89.3219 55.393 65.0579C55.393 40.7938 83.3441 21.1239 117.824 21.1239C134.896 21.1239 150.368 25.9464 161.639 33.7612C173.13 41.7292 180.254 52.8081 180.254 65.0579Z" fill="#275C42"/>
<path d="M158.46 118.418C158.46 142.682 130.509 162.352 96.0296 162.352C61.5501 162.352 33.599 142.682 33.599 118.418C33.599 94.1536 61.5501 74.4837 96.0296 74.4837C121.793 74.4837 143.912 85.4662 153.448 101.142C156.674 106.444 158.46 112.284 158.46 118.418Z" fill="#275C42"/>
<path d="M209.611 162.352C49.9742 162.352 375.495 162.352 209.611 162.352V162.352Z" fill="#275C42"/>
<path d="M161.621 96.3664C159.098 98.1149 156.364 99.7135 153.448 101.142C156.674 106.444 158.46 112.284 158.46 118.418C158.46 142.682 130.509 162.352 96.0296 162.352H209.611C228.856 162.352 274.168 169.594 277.627 132.778C247.49 132.778 228.927 121.806 225.079 105.63C203.446 110.005 178.314 106.918 161.621 96.3664Z" fill="#275C42"/>
<path d="M161.639 33.7612C172.909 25.9464 188.381 21.1239 205.453 21.1239H117.824C134.896 21.1239 150.368 25.9464 161.639 33.7612Z" fill="#275C42"/>
<path d="M277.367 87.6554C280.138 92.3403 282.195 103.873 267.323 110.481C264.897 104.596 263.614 91.8942 277.367 87.6554Z" fill="#367B39"/>
<path d="M277.328 122.77C274.894 126.436 266.839 132.648 255.269 126.73C258.784 122.747 268.081 116.486 277.328 122.77Z" fill="#367B39"/>
<path d="M85.1843 114.31C87.9009 118.652 90.1201 129.433 76.3331 135.916C73.9093 130.44 72.3877 118.549 85.1843 114.31Z" fill="#367B39"/>
<path d="M36.8789 96.8751C43.9485 95.1877 60.1514 95.964 65.3908 113.024C56.7748 114.052 39.1781 112.179 36.8789 96.8751Z" fill="#367B39"/>
<path d="M148.498 39.4131C152.266 45.4371 155.344 60.3921 136.219 69.3855C132.857 61.7896 130.746 45.2934 148.498 39.4131Z" fill="#367B39"/>
<path d="M106.745 54.7289C112.611 55.7612 124.103 61.5139 120.75 75.634C114.033 73.6262 101.986 66.6276 106.745 54.7289Z" fill="#367B39"/>
<path d="M177.443 80.8743L177.443 239.001" stroke="#383838" stroke-width="21.3542" stroke-linecap="round"/>
<path d="M136.282 115.276C149.426 133.382 202.347 143.642 235.553 99.2819" stroke="#383838" stroke-width="21.3542" stroke-linecap="round"/>
<path d="M122.446 252.142C122.446 244.884 128.329 239.001 135.587 239.001H344.512C351.77 239.001 357.653 244.884 357.653 252.142V520.558H122.446V252.142Z" fill="#367B56"/>
<path d="M122.446 252.142C122.446 244.884 128.329 239.001 135.587 239.001H208.971V520.558H122.446V252.142Z" fill="#275C42"/>
<path d="M122.446 252.142C122.446 244.884 128.329 239.001 135.587 239.001H344.512C351.77 239.001 357.653 244.884 357.653 252.142V366.981H122.446V252.142Z" fill="#56BD7A"/>
<path d="M122.446 252.142C122.446 244.884 128.329 239.001 135.587 239.001H208.971V366.981H122.446V252.142Z" fill="#3F8E5D"/>
<rect x="341.742" y="290.193" width="4.8425" height="8.30144" rx="1.64263" fill="#4DA36B"/>
<rect x="325.831" y="319.248" width="4.8425" height="8.30144" rx="1.64263" fill="#4DA36B"/>
<rect x="246.967" y="310.947" width="4.8425" height="8.30144" rx="1.64263" fill="#4DA36B"/>
<rect x="144.583" y="302.646" width="4.8425" height="8.30144" rx="1.64263" fill="#33754C"/>
<rect x="132.823" y="322.707" width="4.8425" height="8.30144" rx="1.64263" fill="#33754C"/>
<rect x="235.207" y="290.193" width="4.8425" height="8.30144" rx="1.64263" fill="#4DA36B"/>
<path d="M291.242 312.427V269.094H273.255V294.946C273.255 296.76 274.726 298.231 276.541 298.231H280.106C281.014 298.231 281.749 298.967 281.749 299.874V312.427C281.749 315.048 283.874 317.174 286.495 317.174C289.117 317.174 291.242 315.048 291.242 312.427Z" fill="#3F8E5D"/>
<path d="M309.92 292.365V261.138H324.448V274.884C324.448 276.698 322.977 278.169 321.162 278.169H321.056C320.148 278.169 319.413 278.905 319.413 279.812V292.365C319.413 294.986 317.288 297.111 314.667 297.111C312.045 297.111 309.92 294.986 309.92 292.365Z" fill="#3F8E5D"/>
<path d="M122.446 261.136C122.446 253.878 128.329 247.995 135.587 247.995H344.512C351.77 247.995 357.653 253.878 357.653 261.136V281.892H122.446V261.136Z" fill="#3F8E5D"/>
<path d="M300.235 302.05V270.823H282.249V284.569C282.249 286.383 283.72 287.854 285.534 287.854H289.1C290.007 287.854 290.742 288.589 290.742 289.497V302.05C290.742 304.671 292.868 306.796 295.489 306.796C298.11 306.796 300.235 304.671 300.235 302.05Z" fill="#A9E760"/>
<path d="M318.913 284.063V252.836H336.9V266.582C336.9 268.396 335.429 269.867 333.615 269.867H330.049C329.142 269.867 328.406 270.603 328.406 271.51V284.063C328.406 286.684 326.281 288.809 323.66 288.809C321.038 288.809 318.913 286.684 318.913 284.063Z" fill="#A9E760"/>
<path d="M122.446 252.142C122.446 244.884 128.329 239.001 135.587 239.001H344.512C351.77 239.001 357.653 244.884 357.653 252.142V272.898H122.446V252.142Z" fill="#A9E760"/>
<path d="M122.446 247.995H208.971V281.892H122.446V247.995Z" fill="#275C42"/>
<path d="M122.446 239.001H208.971V272.898H122.446V239.001Z" fill="#7EAC48"/>
<path d="M177.097 347.608C177.097 340.351 182.981 334.467 190.238 334.467H308.54C315.797 334.467 321.681 340.351 321.681 347.608V584.202H177.097V347.608Z" fill="#A9E760"/>
<path d="M177.097 347.608C177.097 340.351 182.981 334.467 190.238 334.467H228.981V584.202H177.097V347.608Z" fill="#7EAC48"/>
<path d="M177.097 347.608C177.097 340.351 182.981 334.467 190.238 334.467H308.54C315.797 334.467 321.681 340.351 321.681 347.608V355.913H177.097V347.608Z" fill="#D4FC83"/>
<path d="M177.097 347.608C177.097 340.351 182.981 334.467 190.238 334.467H228.981V355.913H177.097V347.608Z" fill="#9EBD61"/>
<rect x="189.549" y="399.496" width="6.91786" height="12.4522" rx="1.64263" fill="#65893A"/>
<rect x="295.392" y="400.879" width="6.91786" height="11.0686" rx="1.64263" fill="#92C951"/>
<rect x="202.001" y="364.214" width="6.91786" height="11.7604" rx="1.64263" fill="#65893A"/>
<rect x="276.714" y="368.365" width="6.91786" height="11.0686" rx="1.64263" fill="#92C951"/>
<path d="M122.446 426.994C122.446 425.179 123.917 423.708 125.731 423.708H450.382C459.212 423.708 467.671 427.263 473.85 433.571L539.202 500.284C545.217 506.425 548.586 514.678 548.586 523.274V675.001C548.586 676.815 547.116 678.286 545.301 678.286H125.731C123.917 678.286 122.446 676.815 122.446 675.001V426.994Z" fill="#367B56"/>
<path d="M122.446 426.994C122.446 425.179 123.917 423.708 125.731 423.708H223.64C226.13 423.708 228.405 425.116 229.518 427.343L265.642 499.661C267.919 504.22 269.105 509.246 269.105 514.342V669.12C269.105 670.935 267.634 672.406 265.82 672.406H125.731C123.917 672.406 122.446 670.935 122.446 669.12V426.994Z" fill="#275C42"/>
<rect x="166.029" y="500.496" width="8.99322" height="12.4522" rx="1.64263" fill="#204E37"/>
<rect x="145.967" y="530.243" width="11.0686" height="14.5275" rx="1.64263" fill="#204E37"/>
<rect x="283.632" y="512.948" width="6.22608" height="9.68501" rx="1.64263" fill="#2B6446"/>
<rect x="303.694" y="520.558" width="7.60965" height="13.1439" rx="1.64263" fill="#2B6446"/>
<path d="M243.057 468.754L227.252 436.549L240.816 440.339C242.683 440.861 244.23 442.218 245.089 444.087L253.746 462.932C255.048 465.767 254.04 469.333 251.453 471.045C248.445 473.036 244.651 472.001 243.057 468.754Z" fill="#1B4431"/>
<path d="M122.446 431.491H230.874L241.433 451.726H122.446V431.491Z" fill="#1B4431"/>
<path d="M244.2 434.793C244.2 432.972 245.681 431.498 247.502 431.508L459.474 432.588C468.246 432.633 476.636 436.184 482.775 442.451L491.86 451.726H247.486C245.671 451.726 244.2 450.255 244.2 448.44V434.793Z" fill="#275C42"/>
<path d="M260.396 463.011L249.735 441.608L259.766 442.775L267.445 459.103C268.329 460.982 267.667 463.364 265.942 464.505C263.96 465.818 261.459 465.144 260.396 463.011Z" fill="#275C42"/>
<path d="M122.446 426.994C122.446 425.179 123.917 423.708 125.731 423.708H450.461C459.245 423.708 467.663 427.226 473.835 433.476L484.942 444.722L125.724 443.95C123.913 443.946 122.446 442.477 122.446 440.665V426.994Z" fill="#56BB7A"/>
<path d="M122.446 423.708H227.598L237.838 443.943H122.446V423.708Z" fill="#3F8D5D"/>
<path d="M122.446 427.772C122.446 425.957 123.917 424.486 125.731 424.486H450.823C459.392 424.486 467.622 427.834 473.758 433.816L484.942 444.721H125.731C123.917 444.721 122.446 443.25 122.446 441.436V427.772Z" fill="#56BB7A"/>
<path d="M122.446 424.486H227.943L237.974 444.721H122.446V424.486Z" fill="#3F8D5D"/>
<path d="M122.446 474.266V443.77H143.2V452.606C143.2 454.42 141.729 455.891 139.914 455.891H135.042C134.135 455.891 133.399 456.627 133.399 457.534V474.266C133.399 477.291 130.947 479.743 127.923 479.743C124.898 479.743 122.446 477.291 122.446 474.266Z" fill="#3F8D5D"/>
<path d="M246.806 461.733L234.169 437.328L248.129 441.251C249.962 441.767 251.487 443.088 252.352 444.912L257.464 455.684C258.819 458.541 257.815 462.173 255.188 463.912C252.209 465.884 248.45 464.907 246.806 461.733Z" fill="#56BB7A"/>
<path d="M264.191 455.875L255.435 438.786L267.465 443.948L271.241 451.892C272.138 453.78 271.475 456.182 269.738 457.332C267.763 458.639 265.272 457.985 264.191 455.875Z" fill="#56BB7A"/>
<path d="M190.933 555.836C190.933 548.578 196.816 542.695 204.074 542.695H599.089C606.347 542.695 612.23 548.578 612.23 555.836V675.518H190.933V555.836Z" fill="#357955"/>
<path d="M190.933 555.836C190.933 548.578 196.816 542.695 204.074 542.695H330.673V675.518H190.933V555.836Z" fill="#1B4431"/>
<path d="M519.531 604.438L519.531 564.141H535.442V572.319C535.442 574.133 533.971 575.604 532.157 575.604H529.571C528.664 575.604 527.929 576.339 527.929 577.247L527.929 604.438C527.929 606.253 526.458 607.724 524.643 607.724H522.816C521.002 607.724 519.531 606.253 519.531 604.438Z" fill="#275C42"/>
<path d="M190.933 555.836C190.933 548.578 196.816 542.695 204.074 542.695H599.089C606.347 542.695 612.23 548.578 612.23 555.836V582.127H190.933V555.836Z" fill="#275C42"/>
<path d="M190.933 555.836C190.933 548.578 196.816 542.695 204.074 542.695H599.089C606.347 542.695 612.23 548.578 612.23 555.836V574.517H190.933V555.836Z" fill="#56BB7A"/>
<path d="M190.933 555.836C190.933 548.578 196.816 542.695 204.074 542.695H330.673V582.127H190.933V555.836Z" fill="#143526"/>
<path d="M190.933 555.836C190.933 548.578 196.816 542.695 204.074 542.695H330.673V574.517H190.933V555.836Z" fill="#3F8D5D"/>
<path d="M527.141 593.37V572.442H543.052V580.62C543.052 582.434 541.581 583.905 539.767 583.905H537.181C536.274 583.905 535.538 584.641 535.538 585.548V593.37C535.538 595.184 534.068 596.655 532.253 596.655H530.426C528.612 596.655 527.141 595.184 527.141 593.37Z" fill="#56BD7A"/>
<rect x="278.098" y="619.483" width="8.99322" height="12.4522" rx="1.64263" fill="#204E37"/>
<rect x="233.132" y="647.847" width="11.0686" height="14.5275" rx="1.64263" fill="#204E37"/>
<rect x="395.702" y="631.936" width="6.22608" height="9.68501" rx="1.64263" fill="#2B6446"/>
<rect x="432.366" y="641.621" width="7.60965" height="13.1439" rx="1.64263" fill="#2B6446"/>
<rect width="6.22608" height="9.68501" rx="1.64263" transform="matrix(-1 0 0 1 571.416 625.018)" fill="#2B6446"/>
<rect width="7.60965" height="13.1439" rx="1.64263" transform="matrix(-1 0 0 1 534.751 634.703)" fill="#2B6446"/>
<g filter="url(#filter0_b_24_1879)">
<path d="M289.167 223.781H294.009L293.086 237.314C293.022 238.264 292.233 239.001 291.281 239.001C290.298 239.001 289.495 238.215 289.472 237.232L289.167 223.781Z" fill="#909090"/>
<path d="M302.31 223.781H297.468L298.702 237.356C298.787 238.288 299.567 239.001 300.502 239.001C301.501 239.001 302.31 238.191 302.31 237.193V223.781Z" fill="#909090"/>
</g>
<g filter="url(#filter1_b_24_1879)">
<path d="M302.769 201.192C314.69 206.193 319.276 211.62 322.089 219.495" stroke="#909090" stroke-width="4.10657" stroke-linecap="round"/>
<circle cx="322.738" cy="220.339" r="3.09364" fill="#909090"/>
</g>
<g filter="url(#filter2_b_24_1879)">
<path d="M288.903 201.192C276.982 206.193 272.396 211.62 269.583 219.495" stroke="#909090" stroke-width="4.10657" stroke-linecap="round"/>
<circle cx="268.74" cy="220.339" r="3.09364" fill="#909090"/>
</g>
<g filter="url(#filter3_b_24_1879)">
<rect x="285.333" y="191.371" width="20.2493" height="33.7488" rx="3.28526" fill="#E4FFFD"/>
<rect x="288.475" y="198.877" width="13.8357" height="22.1372" rx="3.28526" fill="#BEE2E0"/>
</g>
<g filter="url(#filter4_b_24_1879)">
<rect x="271.833" y="167.747" width="47.2484" height="33.7488" rx="3.28526" fill="#F4FFFE"/>
<circle cx="280.552" cy="184.903" r="1.96868" fill="#383838"/>
<circle cx="309.801" cy="184.903" r="1.96868" fill="#383838"/>
<path d="M291.52 189.499C293.539 193.568 298.536 191.746 299.51 189.465" stroke="#383838" stroke-width="1.64263" stroke-linecap="round"/>
</g>
<ellipse cx="281.395" cy="190.527" rx="3.37488" ry="1.96868" fill="#FFBFBC"/>
<ellipse cx="310.082" cy="190.527" rx="3.37488" ry="1.96868" fill="#FFBFBC"/>
<path d="M347.028 467.999C347.028 444.174 379.967 437.943 388.669 460.121C389.389 461.956 391.159 463.163 393.13 463.163H442.668C454.872 463.163 465.47 471.563 468.256 483.445L469.729 489.724C474.585 510.432 458.87 530.258 437.6 530.258H360.698C353.148 530.258 347.028 524.138 347.028 516.588V467.999Z" fill="white"/>
<path d="M441.679 489.508C441.986 486.849 443.794 484.604 446.327 483.737L466 477C468.5 481.5 472.5 490.5 470 503.5L446.707 496.989C443.42 496.071 441.288 492.899 441.679 489.508Z" fill="#383838"/>
<ellipse cx="378.758" cy="530.259" rx="12.6918" ry="12.7416" fill="#383838"/>
<ellipse cx="378.757" cy="530.259" rx="6.34592" ry="6.37079" fill="#ECECEC"/>
<ellipse cx="432.698" cy="530.259" rx="12.6918" ry="12.7416" fill="#383838"/>
<ellipse cx="432.698" cy="530.259" rx="6.34592" ry="6.37079" fill="#ECECEC"/>
<path d="M364.012 505.774C363.002 504.824 362.941 503.229 363.965 502.295C372.138 494.846 385.978 490.614 418.193 485.295C424.248 484.295 429.722 488.997 429.722 495.135C429.722 501.338 424.125 506.032 417.993 505.097C388.723 500.635 377.089 501.405 366.918 506.205C365.949 506.663 364.792 506.509 364.012 505.774Z" fill="#919191"/>
<path d="M405.603 416.132C405.603 414.317 407.074 412.847 408.888 412.847H419.413C421.228 412.847 422.698 414.317 422.698 416.132V420.638C422.698 422.453 421.228 423.923 419.413 423.923H405.603V416.132Z" fill="#10314B"/>
<path d="M410.073 416.132C410.073 414.318 411.544 412.847 413.358 412.847H422.991C424.806 412.847 426.276 414.318 426.276 416.132V423.924H410.073V416.132Z" fill="#6D7785"/>
<circle cx="415.344" cy="365.148" r="36.6647" fill="white" fill-opacity="0.6"/>
<rect x="408.247" y="337.476" width="14.5888" height="33.5148" rx="3.28526" fill="#F96C67"/>
<path d="M417.889 391.169C416.574 392.779 414.113 392.779 412.799 391.169L397.554 372.493C395.803 370.347 397.33 367.13 400.099 367.13L430.588 367.13C433.358 367.13 434.885 370.347 433.133 372.493L417.889 391.169Z" fill="#F96C67"/>
<path d="M269 524.584C269.137 530.347 273.395 541.911 289.335 542.059C288.281 535.302 282.737 522.346 269 524.584Z" fill="#1B4431"/>
<path d="M307.602 524.174C307.632 529.939 303.657 542.069 287.734 542.069C288.592 535.283 293.805 522.35 307.602 524.174Z" fill="#1B4431"/>
<path d="M195.775 224.273C195.89 229.128 199.477 238.868 212.903 238.993C212.015 233.301 207.346 222.388 195.775 224.273Z" fill="#367B56"/>
<path d="M228.289 223.928C228.315 228.784 224.967 239.001 211.555 239.001C212.278 233.285 216.669 222.392 228.289 223.928Z" fill="#367B56"/>
<path d="M327.906 232.307C327.958 234.513 329.56 238.941 335.559 238.997C335.163 236.41 333.076 231.45 327.906 232.307Z" fill="#56BD7A"/>
<path d="M342.434 232.15C342.445 234.357 340.949 239.001 334.957 239.001C335.28 236.403 337.242 231.451 342.434 232.15Z" fill="#56BD7A"/>
<defs>
<filter id="filter0_b_24_1879" x="272.74" y="207.355" width="45.9963" height="48.0718" filterUnits="userSpaceOnUse" color-interpolation-filters="sRGB">
<feFlood flood-opacity="0" result="BackgroundImageFix"/>
<feGaussianBlur in="BackgroundImageFix" stdDeviation="8.21314"/>
<feComposite in2="SourceAlpha" operator="in" result="effect1_backgroundBlur_24_1879"/>
<feBlend mode="normal" in="SourceGraphic" in2="effect1_backgroundBlur_24_1879" result="shape"/>
</filter>
<filter id="filter1_b_24_1879" x="284.289" y="182.712" width="57.9682" height="57.1463" filterUnits="userSpaceOnUse" color-interpolation-filters="sRGB">
<feFlood flood-opacity="0" result="BackgroundImageFix"/>
<feGaussianBlur in="BackgroundImageFix" stdDeviation="8.21314"/>
<feComposite in2="SourceAlpha" operator="in" result="effect1_backgroundBlur_24_1879"/>
<feBlend mode="normal" in="SourceGraphic" in2="effect1_backgroundBlur_24_1879" result="shape"/>
</filter>
<filter id="filter2_b_24_1879" x="249.22" y="182.712" width="58.1631" height="57.1463" filterUnits="userSpaceOnUse" color-interpolation-filters="sRGB">
<feFlood flood-opacity="0" result="BackgroundImageFix"/>
<feGaussianBlur in="BackgroundImageFix" stdDeviation="8.21314"/>
<feComposite in2="SourceAlpha" operator="in" result="effect1_backgroundBlur_24_1879"/>
<feBlend mode="normal" in="SourceGraphic" in2="effect1_backgroundBlur_24_1879" result="shape"/>
</filter>
<filter id="filter3_b_24_1879" x="269.728" y="175.766" width="51.4592" height="64.9587" filterUnits="userSpaceOnUse" color-interpolation-filters="sRGB">
<feFlood flood-opacity="0" result="BackgroundImageFix"/>
<feGaussianBlur in="BackgroundImageFix" stdDeviation="7.80249"/>
<feComposite in2="SourceAlpha" operator="in" result="effect1_backgroundBlur_24_1879"/>
<feBlend mode="normal" in="SourceGraphic" in2="effect1_backgroundBlur_24_1879" result="shape"/>
</filter>
<filter id="filter4_b_24_1879" x="263.62" y="159.534" width="63.6746" height="50.1751" filterUnits="userSpaceOnUse" color-interpolation-filters="sRGB">
<feFlood flood-opacity="0" result="BackgroundImageFix"/>
<feGaussianBlur in="BackgroundImageFix" stdDeviation="4.10657"/>
<feComposite in2="SourceAlpha" operator="in" result="effect1_backgroundBlur_24_1879"/>
<feBlend mode="normal" in="SourceGraphic" in2="effect1_backgroundBlur_24_1879" result="shape"/>
</filter>
</defs>
</svg>
