<svg width="270" height="374" viewBox="0 0 270 374" fill="none" xmlns="http://www.w3.org/2000/svg">
<path d="M146.347 354.278L168.297 129.122L188.552 129.122L210.031 354.278L146.347 354.278Z" fill="#EDFBFE"/>
<path d="M184.783 335.436L182.428 129.593L188.551 130.064L208.335 335.436L184.783 335.436Z" fill="#CCE5E8"/>
<path d="M227.733 373.496C229.409 373.496 230.596 371.858 230.074 370.265L219.221 337.133C218.89 336.121 217.945 335.436 216.88 335.436L138.577 335.436C137.516 335.436 136.575 336.115 136.239 337.121L125.194 370.253C124.662 371.848 125.85 373.496 127.532 373.496L227.733 373.496Z" fill="#ACC4C4"/>
<path d="M196.752 373.119C198.339 373.119 199.512 371.641 199.152 370.096L191.077 335.436L135.374 335.436C134.232 335.436 133.24 336.221 132.976 337.332L125.209 370.087C124.842 371.634 126.016 373.119 127.607 373.119L196.752 373.119Z" fill="#CCE5E8"/>
<rect x="134.287" y="1" width="87.8014" height="24.8708" rx="3.28526" fill="#DFF3F7"/>
<rect x="181.391" y="25.8706" width="18.8415" height="6.02928" transform="rotate(90 181.391 25.8706)" fill="#EDFBFE"/>
<path d="M239.046 78.2495L227.12 124.931C226.377 127.84 223.756 129.875 220.754 129.875L134.728 129.875C131.792 129.875 129.213 127.928 128.409 125.104L115.069 78.2495L239.046 78.2495Z" fill="#DFF3F7"/>
<path d="M260.909 44.7122C265.259 44.7122 268.408 48.8632 267.237 53.0525L249.621 116.031C248.827 118.869 246.241 120.832 243.294 120.832L113.436 120.832C110.5 120.832 107.92 118.884 107.116 116.06L89.1891 53.0815C87.9947 48.8856 91.1459 44.7122 95.5086 44.7122L260.909 44.7122Z" fill="#EDFBFE"/>
<path d="M145.528 57.9009C146.327 57.9009 147.01 58.4761 147.147 59.2636L155.246 106.097C155.419 107.101 154.646 108.019 153.627 108.019L119.534 108.019C118.79 108.019 118.138 107.519 117.947 106.8L105.446 59.9671C105.168 58.9242 105.954 57.9009 107.033 57.9009L145.528 57.9009Z" fill="#A0E3E0"/>
<path d="M197.94 58.2778C198.947 58.2778 199.717 59.1755 199.564 60.1707L192.345 107.004C192.222 107.805 191.532 108.396 190.722 108.396L166.591 108.396C165.782 108.396 165.094 107.808 164.968 107.01L157.573 60.1766C157.416 59.1796 158.187 58.2778 159.196 58.2778L197.94 58.2778Z" fill="#A0E3E0"/>
<path d="M212.538 58.2778C211.741 58.2778 211.059 58.8499 210.92 59.6346L202.645 106.468C202.468 107.474 203.241 108.396 204.263 108.396L237.784 108.396C238.528 108.396 239.179 107.896 239.371 107.177L251.872 60.3441C252.15 59.3012 251.364 58.2778 250.285 58.2778L212.538 58.2778Z" fill="#A0E3E0"/>
<g opacity="0.55">
<path d="M59.9063 28.5352C35.1497 35.3325 39.8498 65.026 51.4452 72.8965" stroke="#C9ECEA" stroke-width="6.57051" stroke-linecap="round"/>
<path d="M39.1914 4.25561C-5.83945 12.0339 -1.33192 65.5282 18.3175 81.4972" stroke="#C9ECEA" stroke-width="6.57051" stroke-linecap="round"/>
</g>
</svg>
