<svg width="270" height="374" viewBox="0 0 270 374" fill="none" xmlns="http://www.w3.org/2000/svg">
<path d="M146.346 354.278L168.297 129.122L188.551 129.122L210.03 354.278L146.346 354.278Z" fill="#EDFBFE"/>
<path d="M184.783 335.436L182.428 129.593L188.551 130.064L208.335 335.436L184.783 335.436Z" fill="#CCE5E8"/>
<path d="M227.733 373.496C229.409 373.496 230.596 371.858 230.075 370.265L219.222 337.133C218.89 336.121 217.945 335.436 216.88 335.436L138.577 335.436C137.516 335.436 136.575 336.115 136.239 337.121L125.194 370.253C124.662 371.848 125.85 373.496 127.532 373.496L227.733 373.496Z" fill="#ACC4C4"/>
<path d="M196.752 373.119C198.339 373.119 199.512 371.641 199.152 370.096L191.076 335.436L135.373 335.436C134.231 335.436 133.239 336.221 132.976 337.332L125.209 370.087C124.842 371.634 126.016 373.119 127.607 373.119L196.752 373.119Z" fill="#CCE5E8"/>
<rect x="134.288" y="1" width="87.8014" height="24.8708" rx="3.28526" fill="#DFF3F7"/>
<rect x="181.391" y="25.8707" width="18.8415" height="6.02928" transform="rotate(90 181.391 25.8707)" fill="#EDFBFE"/>
<path d="M239.046 78.2496L227.12 124.931C226.377 127.84 223.757 129.875 220.754 129.875L134.728 129.875C131.793 129.875 129.213 127.928 128.409 125.104L115.069 78.2496L239.046 78.2496Z" fill="#DFF3F7"/>
<path d="M260.909 44.712C265.259 44.712 268.409 48.8631 267.237 53.0524L249.622 116.031C248.828 118.869 246.241 120.832 243.294 120.832L113.436 120.832C110.5 120.832 107.92 118.884 107.117 116.06L89.1894 53.0814C87.995 48.8855 91.1463 44.712 95.5089 44.712L260.909 44.712Z" fill="#EDFBFE"/>
<path d="M145.528 57.9009C146.328 57.9009 147.011 58.4761 147.147 59.2636L155.246 106.097C155.42 107.101 154.647 108.019 153.627 108.019L119.534 108.019C118.79 108.019 118.139 107.519 117.947 106.8L105.446 59.9671C105.168 58.9242 105.954 57.9009 107.033 57.9009L145.528 57.9009Z" fill="#A0E3E0"/>
<path d="M197.941 58.2778C198.948 58.2778 199.718 59.1755 199.564 60.1707L192.346 107.004C192.222 107.805 191.533 108.396 190.722 108.396L166.591 108.396C165.783 108.396 165.095 107.808 164.969 107.01L157.574 60.1766C157.417 59.1796 158.187 58.2778 159.197 58.2778L197.941 58.2778Z" fill="#A0E3E0"/>
<path d="M212.539 58.2778C211.742 58.2778 211.06 58.8499 210.921 59.6346L202.646 106.468C202.468 107.474 203.242 108.396 204.264 108.396L237.785 108.396C238.529 108.396 239.18 107.896 239.372 107.177L251.872 60.3441C252.151 59.3012 251.365 58.2778 250.285 58.2778L212.539 58.2778Z" fill="#A0E3E0"/>
<g opacity="0.55">
<path d="M59.9066 28.5348C35.15 35.3321 39.8502 65.0256 51.4456 72.8962" stroke="#C9ECEA" stroke-width="6.57051" stroke-linecap="round"/>
<path d="M39.1913 4.25536C-5.83957 12.0337 -1.33204 65.5279 18.3174 81.4969" stroke="#C9ECEA" stroke-width="6.57051" stroke-linecap="round"/>
</g>
</svg>
