<svg width="361" height="500" viewBox="0 0 361 500" fill="none" xmlns="http://www.w3.org/2000/svg">
<path d="M195.209 473.634L224.638 171.771L251.793 171.771L280.59 473.634L195.209 473.634Z" fill="#EDFBFE"/>
<path d="M246.741 448.374L243.583 172.403L251.793 173.034L278.316 448.374L246.741 448.374Z" fill="#CCE5E8"/>
<path d="M304.742 499.4C306.783 499.4 308.228 497.406 307.593 495.466L292.844 450.44C292.44 449.207 291.29 448.374 289.993 448.374L184.575 448.374C183.284 448.374 182.137 449.2 181.729 450.425L166.719 495.451C166.071 497.394 167.517 499.4 169.565 499.4L304.742 499.4Z" fill="#ACC4C4"/>
<path d="M263.17 498.895C265.102 498.895 266.53 497.096 266.092 495.214L255.178 448.374L180.258 448.374C178.868 448.374 177.66 449.329 177.339 450.682L166.783 495.203C166.336 497.087 167.765 498.895 169.702 498.895L263.17 498.895Z" fill="#CCE5E8"/>
<rect x="179.043" width="117.714" height="33.3439" rx="4" fill="#DFF3F7"/>
<rect x="242.194" y="33.3439" width="25.2605" height="8.08336" transform="rotate(90 242.194 33.3439)" fill="#EDFBFE"/>
<path d="M319.491 103.568L303.347 166.762C302.442 170.304 299.251 172.782 295.596 172.782L179.023 172.782C175.449 172.782 172.308 170.41 171.329 166.972L153.277 103.568L319.491 103.568Z" fill="#DFF3F7"/>
<path d="M349.869 58.6042C355.165 58.6042 359 63.6584 357.573 68.7592L333.504 154.812C332.537 158.267 329.388 160.657 325.799 160.657L150.477 160.657C146.902 160.657 143.761 158.285 142.782 154.847L118.287 68.7945C116.833 63.6856 120.67 58.6042 125.981 58.6042L349.869 58.6042Z" fill="#EDFBFE"/>
<path d="M194.284 76.2867C195.257 76.2867 196.088 76.9871 196.254 77.9459L207.182 141.139C207.394 142.362 206.452 143.48 205.212 143.48L159.107 143.48C158.202 143.48 157.409 142.871 157.175 141.995L140.308 78.8025C139.969 77.5327 140.926 76.2867 142.24 76.2867L194.284 76.2867Z" fill="#A0E3E0"/>
<path d="M264.618 76.7919C265.844 76.7919 266.781 77.8849 266.594 79.0965L256.854 142.289C256.704 143.265 255.864 143.985 254.877 143.985L222.179 143.985C221.195 143.985 220.357 143.269 220.204 142.297L210.226 79.1038C210.034 77.8899 210.972 76.7919 212.201 76.7919L264.618 76.7919Z" fill="#A0E3E0"/>
<path d="M283.783 76.7919C282.813 76.7919 281.983 77.4884 281.814 78.4439L270.648 141.637C270.432 142.862 271.374 143.985 272.618 143.985L317.955 143.985C318.861 143.985 319.654 143.376 319.887 142.501L336.755 79.3076C337.094 78.0378 336.136 76.7919 334.822 76.7919L283.783 76.7919Z" fill="#A0E3E0"/>
<g opacity="0.55">
<path d="M79.3213 36.9166C46.1306 46.0297 52.4319 85.8393 67.9777 96.3912" stroke="#C9ECEA" stroke-width="8" stroke-linecap="round"/>
<path d="M51.5487 4.36499C-8.82336 14.7932 -2.78019 86.5121 23.5635 107.921" stroke="#C9ECEA" stroke-width="8" stroke-linecap="round"/>
</g>
</svg>
