<svg width="505" height="393" viewBox="0 0 505 393" fill="none" xmlns="http://www.w3.org/2000/svg">
<path d="M206.818 152.718C206.818 256.282 25 256.282 25 152.718C25 108.369 65.7014 72.4169 115.909 72.4169C166.117 72.4169 206.818 108.369 206.818 152.718Z" fill="#3F8E5D"/>
<path d="M505 141.33C505 179.389 493 210 401 210C357.115 210 358.354 184.024 352.751 154.457C345.507 116.235 370.251 72.4169 426.983 72.4169C470.071 72.4169 505 103.27 505 141.33Z" fill="#3F8E5D"/>
<path d="M415.083 80.301C415.083 121.065 386.914 145.784 352.751 154.457C321.251 162.455 284.655 156.811 260.347 137.526C244.041 124.589 233.264 105.514 233.264 80.301C233.264 57.9113 243.638 37.6618 260.372 23.0981C276.784 8.81438 299.313 0 324.174 0C374.381 0 415.083 35.952 415.083 80.301Z" fill="#3F8E5D"/>
<path d="M287.479 80.301C287.479 102.702 277.095 122.96 260.347 137.526C256.672 140.722 252.691 143.643 248.446 146.254C233.734 155.299 215.853 160.602 196.57 160.602C146.363 160.602 105.661 124.65 105.661 80.301C105.661 35.952 146.363 0 196.57 0C221.43 0 243.96 8.81438 260.372 23.0981C277.106 37.6618 287.479 57.9113 287.479 80.301Z" fill="#3F8E5D"/>
<path d="M255.744 177.83C255.744 222.179 215.042 258.131 164.835 258.131C114.627 258.131 73.9256 222.179 73.9256 177.83C73.9256 133.481 114.627 97.5293 164.835 97.5293C202.351 97.5293 234.56 117.603 248.446 146.254C253.143 155.946 255.744 166.62 255.744 177.83Z" fill="#3F8E5D"/>
<path d="M354.587 258.131C596.14 258.131 122.129 258.131 354.587 258.131Z" fill="#3F8E5D"/>
<path d="M260.347 137.526C256.672 140.722 252.691 143.643 248.446 146.254C253.143 155.946 255.744 166.62 255.744 177.83C255.744 222.179 215.042 258.131 164.835 258.131H354.587C378.719 256.769 401 245.04 401 210C357.115 210 358.354 184.024 352.751 154.457C321.251 162.455 284.655 156.811 260.347 137.526Z" fill="#3F8E5D"/>
<path d="M260.372 23.0981C276.784 8.81438 299.313 0 324.174 0H196.57C221.43 0 243.96 8.81438 260.372 23.0981Z" fill="#3F8E5D"/>
<path d="M180.491 166.433C180.491 256.522 0 256.522 0 166.433C0 127.855 40.4043 96.5805 90.2455 96.5805C140.087 96.5805 180.491 127.855 180.491 166.433Z" fill="#275C42"/>
<path d="M473 153.218C473 186.325 444.092 211.111 401.319 211.111C357.755 211.111 330.921 193.666 325.358 167.946C318.167 134.697 342.731 96.5805 399.049 96.5805C441.822 96.5805 473 120.11 473 153.218Z" fill="#275C42"/>
<path d="M387.235 103.439C387.235 138.899 359.272 160.401 325.358 167.946C294.088 174.903 257.76 169.994 233.629 153.218C217.442 141.965 206.744 125.371 206.744 103.439C206.744 83.9622 217.042 66.3474 233.654 53.6786C249.946 41.2533 272.311 33.5858 296.99 33.5858C346.831 33.5858 387.235 64.86 387.235 103.439Z" fill="#275C42"/>
<path d="M260.563 103.439C260.563 122.925 250.255 140.548 233.629 153.218C229.981 155.998 226.029 158.54 221.815 160.81C207.211 168.679 189.46 173.292 170.318 173.292C120.477 173.292 80.0724 142.017 80.0724 103.439C80.0724 64.86 120.477 33.5858 170.318 33.5858C194.997 33.5858 217.362 41.2533 233.654 53.6786C250.265 66.3474 260.563 83.9622 260.563 103.439Z" fill="#275C42"/>
<path d="M229.06 188.278C229.06 226.857 188.655 258.131 138.814 258.131C88.9728 258.131 48.5685 226.857 48.5685 188.278C48.5685 149.7 88.9728 118.425 138.814 118.425C176.056 118.425 208.03 135.887 221.815 160.81C226.478 169.241 229.06 178.526 229.06 188.278Z" fill="#275C42"/>
<path d="M303 258.131C542.79 258.131 72.2393 258.131 303 258.131Z" fill="#275C42"/>
<path d="M233.629 153.218C229.981 155.998 226.029 158.54 221.815 160.81C226.478 169.241 229.06 178.526 229.06 188.278C229.06 226.857 188.655 258.131 138.814 258.131H303C330.819 258.131 396.319 269.646 401.319 211.111C357.755 211.111 330.921 193.666 325.358 167.946C294.088 174.903 257.76 169.994 233.629 153.218Z" fill="#275C42"/>
<path d="M233.654 53.6786C249.946 41.2533 272.311 33.5858 296.99 33.5858H170.318C194.997 33.5858 217.362 41.2533 233.654 53.6786Z" fill="#275C42"/>
<path d="M400.943 139.368C404.948 146.816 407.922 165.153 386.424 175.66C382.917 166.302 381.063 146.107 400.943 139.368Z" fill="#367B39"/>
<path d="M400.887 195.198C397.369 201.027 385.725 210.904 369 201.495C374.08 195.162 387.52 185.207 400.887 195.198Z" fill="#367B39"/>
<path d="M123.137 181.747C127.064 188.651 130.272 205.792 110.342 216.1C106.838 207.394 104.639 188.486 123.137 181.747Z" fill="#367B39"/>
<path d="M53.3097 154.026C63.529 151.343 86.9508 152.578 94.5246 179.702C82.0699 181.337 56.6332 178.359 53.3097 154.026Z" fill="#367B39"/>
<path d="M214.658 62.6646C220.106 72.2424 224.555 96.0202 196.909 110.319C192.049 98.2421 188.998 72.014 214.658 62.6646Z" fill="#367B39"/>
<path d="M154.304 87.0163C162.783 88.6575 179.395 97.8041 174.548 120.254C164.838 117.062 147.424 105.935 154.304 87.0163Z" fill="#367B39"/>
<path d="M256.5 128.586L256.5 380" stroke="#383838" stroke-width="26" stroke-linecap="round"/>
<path d="M197 183.283C216 212.071 292.5 228.384 340.5 157.854" stroke="#383838" stroke-width="26" stroke-linecap="round"/>
</svg>
